ply
format ascii 1.0
comment File exported by Rhinoceros Version 7.0
element vertex 151
property float x
property float y
property float z
property float nx
property float ny
property float nz
property uchar red
property uchar green
property uchar blue
element face 144
property list uchar uint vertex_indices
element material 1
property uchar ambient_red
property uchar ambient_green
property uchar ambient_blue
property uchar ambient_alpha
property uchar diffuse_red
property uchar diffuse_green
property uchar diffuse_blue
property uchar diffuse_alpha
property uchar emissive_red
property uchar emissive_green
property uchar emissive_blue
property uchar emissive_alpha
property uchar specular_red
property uchar specular_green
property uchar specular_blue
property uchar specular_alpha
property double shine
property double transparency
end_header
0.496000021696091 0.981917083263397 -0.5 -0.5000001 0.8660254 0 250 250 250
0.496000021696091 0.981917083263397 -5.55111512312578E-17 -0.5000001 0.8660254 0 250 250 250
0.0806475728750229 0.74211323261261 -0.5 -0.5000001 0.8660254 0 250 250 250
0.288323789834976 0.862015187740326 -0.5 -0.5000001 0.8660254 0 250 250 250
0.0806475728750229 0.74211323261261 -0.25 -0.5000001 0.8660254 0 250 250 250
0.496000021696091 0.981917083263397 -0.25 -0.5000001 0.8660254 0 250 250 250
0.0806475728750229 0.74211323261261 -6.93889390390723E-18 -0.5000001 0.8660254 0 250 250 250
0.288323789834976 0.862015187740326 -3.12250225675825E-17 -0.5000001 0.8660254 0 250 250 250
0.496000021696091 0.502309381961823 -0.5 1 0 0 250 250 250
0.496000021696091 0.502309381961823 0.739940166473389 1 0 0 250 250 250
0.496000021696091 0.981917083263397 -0.5 1 0 0 250 250 250
0.496000021696091 0.981917083263397 0.739940166473389 1 0 0 250 250 250
0.496000021696091 0.981917083263397 -0.25 1 0 0 250 250 250
0.496000021696091 0.981917083263397 -5.55111512312578E-17 1 -5.53775E-17 0 250 250 250
0.496000021696091 0.74211323261261 0.739940166473389 1 0 0 250 250 250
0.496000021696091 0.502309381961823 0 1 1.10755E-16 0 250 250 250
0.496000021696091 0.502309381961823 -0.25 1 0 0 250 250 250
0.0806475728750229 0.262505561113358 -0.5 0 0 -1 250 250 250
0.496000021696091 0.981917083263397 -0.5 0 0 -1 250 250 250
0.288323789834976 0.862015187740326 -0.5 0 0 -1 250 250 250
0.0806475728750229 0.74211323261261 -0.5 0 0 -1 250 250 250
0.0806475728750229 0.502309381961823 -0.5 0 0 -1 250 250 250
0.288323789834976 0.382407486438751 -0.5 0 0 -1 250 250 250
0.496000021696091 0.502309381961823 -0.5 0 0 -1 250 250 250
0.496000021696091 0.502309381961823 0.739940166473389 0 0 1 250 250 250
0.496000021696091 0.981917083263397 0.739940166473389 0 0 1 250 250 250
0.496000021696091 0.74211323261261 0.739940166473389 0 0 1 250 250 250
0.0806475728750229 0.74211323261261 0.739940166473389 0 0 1 250 250 250
0.288323789834976 0.622211337089539 0.739940166473389 0 0 1 250 250 250
0.288323789834976 0.862015187740326 0.739940166473389 0 0 1 250 250 250
-0.24600000679493 0.914929807186127 0.0500000007450581 -1 0 0 250 250 250
-0.24600000679493 0.914929807186127 1.5 -1 0 0 250 250 250
-0.24600000679493 0.0739155039191246 0.0500000007450581 -1 0 0 250 250 250
-0.24600000679493 0.0739155039191246 1.5 -1 0 0 250 250 250
-0.24600000679493 0.0739155039191246 0.774999976158142 -1 0 0 250 250 250
-0.24600000679493 0.914929807186127 1.01666665077209 -1 0 0 250 250 250
-0.24600000679493 0.914929807186127 0.533333361148834 -1 0 0 250 250 250
-0.24600000679493 0.494422644376755 0.0500000007450581 -1 0 0 250 250 250
-0.24600000679493 0.494422644376755 1.5 -1 0 0 250 250 250
-0.24600000679493 0.0739155039191246 1.5 0 0 1 250 250 250
-0.24600000679493 0.914929807186127 1.5 0 0 1 250 250 250
0.125 0.288112461566925 1.5 0 0 1 250 250 250
0.495999991893768 0.502309381961823 1.5 0 0 1 250 250 250
0.0806475356221199 0.74211323261261 1.5 0 0 1 250 250 250
0.0669872984290123 0.734226524829865 1.5 0 0 1 250 250 250
-0.24600000679493 0.494422644376755 1.5 -2.220446E-16 0 1 250 250 250
0.128710001707077 0.494422644376755 1.5 -2.220446E-16 0 1 250 250 250
0.128710001707077 0.70467621088028 1.5 -2.220446E-16 0 1 250 250 250
-0.0586449988186359 0.494422644376755 1.5 -2.220446E-16 0 1 250 250 250
-0.0586449988186359 0.70467621088028 1.5 -2.220446E-16 0 1 250 250 250
0.0350324995815754 0.70467621088028 1.5 -2.220446E-16 0 1 250 250 250
0.0818712487816811 0.70467621088028 1.5 -2.220446E-16 0 1 250 250 250
0.128710001707077 0.599549412727356 1.5 0 0 1 250 250 250
-0.0586449988186359 0.599549412727356 1.5 0 0 1 250 250 250
0.0350324995815754 0.494422644376755 1.5 -2.220446E-16 0 1 250 250 250
0.0350324995815754 0.599549412727356 1.5 0 0 1 250 250 250
0.0350324995815754 0.730957925319672 1.5 0 0 1 250 250 250
0.0584518760442734 0.70467621088028 1.5 -2.220446E-16 0 1 250 250 250
0.0584518760442734 0.730957925319672 1.5 0 0 1 250 250 250
-0.0586449988186359 0.757239639759064 1.5 2.220446E-16 0 1 250 250 250
-0.0118062496185303 0.70467621088028 1.5 -2.220446E-16 0 1 250 250 250
-0.0118062496185303 0.757239639759064 1.5 2.220446E-16 0 1 250 250 250
0.128710001707077 0.65211284160614 1.5 0 0 1 250 250 250
0.0350324995815754 0.65211284160614 1.5 0 0 1 250 250 250
0.0818712487816811 0.599549412727356 1.5 0 0 1 250 250 250
0.0818712487816811 0.65211284160614 1.5 0 0 1 250 250 250
0.222387492656708 0.494422644376755 1.5 -2.220446E-16 0 1 250 250 250
0.222387492656708 0.599549412727356 1.5 0 0 1 250 250 250
0.0806475728750229 0.74211323261261 -0.5 -1 0 0 250 250 250
0.0806475728750229 0.74211323261261 0.0500000007450581 -1 0 0 250 250 250
0.0806475728750229 0.262505561113358 -0.5 -1 0 0 250 250 250
0.0806475728750229 0.262505561113358 0.0500000007450581 -1 0 0 250 250 250
0.0806475728750229 0.74211323261261 -6.93889390390723E-18 -1 0 0 250 250 250
0.0806475728750229 0.74211323261261 -0.25 -1 0 0 250 250 250
0.0806475728750229 0.502309381961823 -0.5 -1 0 0 250 250 250
0.0806475728750229 0.262505561113358 -0.224999994039536 -1 0 0 250 250 250
0.0806475728750229 0.502309381961823 0.0500000007450581 -1 0 0 250 250 250
0.0806475728750229 0.502309381961823 -0.224999994039536 -1 0 0 250 250 250
0.0806475728750229 0.502309381961823 -0.0874999985098839 -1 -2.775558E-17 0 250 250 250
0.0806475728750229 0.622211337089539 -0.224999994039536 -1 0 0 250 250 250
0.0806475728750229 0.622211337089539 -0.0874999985098839 -1 -2.775558E-17 0 250 250 250
0.0806475728750229 0.262505561113358 -0.5 0.5 -0.8660254 0 250 250 250
0.0806475728750229 0.262505561113358 0.0500000007450581 0.5 -0.8660254 0 250 250 250
0.496000021696091 0.502309381961823 -0.5 0.5 -0.8660254 0 250 250 250
0.0806475728750229 0.262505561113358 -0.224999994039536 0.5 -0.8660254 0 250 250 250
0.288323789834976 0.382407486438751 -0.5 0.5 -0.8660254 0 250 250 250
0.496000021696091 0.502309381961823 -0.25 0.5 -0.8660254 0 250 250 250
0.496000021696091 0.502309381961823 0 0.5 -0.8660254 0 250 250 250
0.288323789834976 0.382407486438751 0.025000000372529 0.5 -0.8660254 0 250 250 250
-0.24600000679493 0.0739155039191246 1.5 0.5 -0.8660254 0 250 250 250
0.496000021696091 0.502309381961823 0 0.5 -0.8660254 0 250 250 250
0.495999991893768 0.502309381961823 1.5 0.5 -0.8660254 0 250 250 250
-0.24600000679493 0.0739155039191246 0.774999976158142 0.5 -0.8660254 0 250 250 250
-0.24600000679493 0.0739155039191246 0.0500000007450581 0.5 -0.8660254 0 250 250 250
0.0806475728750229 0.262505561113358 0.0500000007450581 0.5 -0.8660254 0 250 250 250
0.125 0.288112461566925 1.5 0.5 -0.8660254 0 250 250 250
0.496000021696091 0.502309381961823 0.739940166473389 0.5 -0.8660254 0 250 250 250
0.288323789834976 0.382407486438751 0.025000000372529 0.5 -0.8660254 0 250 250 250
0.496000021696091 0.502309381961823 1.11997008323669 0.5 -0.8660254 0 250 250 250
0.496000021696091 0.502309381961823 0.739940166473389 0.5 0.8660254 0 250 250 250
0.495999991893768 0.502309381961823 1.5 0.5 0.8660254 0 250 250 250
0.0806475356221199 0.74211323261261 1.5 0.5 0.8660254 0 250 250 250
0.288323789834976 0.622211337089539 0.739940166473389 0.5 0.8660254 0 250 250 250
0.0806475728750229 0.74211323261261 0.739940166473389 0.5 0.8660254 0 250 250 250
0.496000021696091 0.502309381961823 1.11997008323669 0.5 0.8660254 0 250 250 250
0.0806475579738617 0.74211323261261 1.11997008323669 0.5 0.8660254 0 250 250 250
-0.24600000679493 0.0739155039191246 0.0500000007450581 0 0 -1 250 250 250
-0.24600000679493 0.914929807186127 0.0500000007450581 0 0 -1 250 250 250
0.0806475728750229 0.262505561113358 0.0500000007450581 0 0 -1 250 250 250
0.0806475728750229 0.502309381961823 0.0500000007450581 0 0 -1 250 250 250
0.0806475728750229 0.74211323261261 0.0500000007450581 0 0 -1 250 250 250
0.0669872984290123 0.734226524829865 0.0500000007450581 0 0 -1 250 250 250
-0.24600000679493 0.494422644376755 0.0500000007450581 0 0 -1 250 250 250
-0.0826762169599533 0.494422644376755 0.0500000007450581 0 0 -1 250 250 250
-0.0826762169599533 0.70467621088028 0.0500000007450581 -1.387779E-17 0 -1 250 250 250
-0.00101432553492486 0.494422644376755 0.0500000007450581 0 0 -1 250 250 250
-0.00101432553492486 0.70467621088028 0.0500000007450581 -1.387779E-17 0 -1 250 250 250
0.0398166216909885 0.70467621088028 0.0500000007450581 -1.387779E-17 0 -1 250 250 250
-0.00101432553492486 0.599549412727356 0.0500000007450581 0 0 -1 250 250 250
0.0398166216909885 0.494422644376755 0.0500000007450581 0 0 -1 250 250 250
0.0398166216909885 0.599549412727356 0.0500000007450581 0 0 -1 250 250 250
-0.0826762169599533 0.28416907787323 0.0500000007450581 -1.387779E-17 0 -1 250 250 250
-0.00101432553492486 0.28416907787323 0.0500000007450581 -1.387779E-17 0 -1 250 250 250
-0.24600000679493 0.914929807186127 0.0500000007450581 0.5 0.8660254 0 250 250 250
-0.24600000679493 0.914929807186127 1.5 0.5 0.8660254 0 250 250 250
0.0669872984290123 0.734226524829865 1.5 0.5 0.8660254 0 250 250 250
-0.24600000679493 0.914929807186127 1.01666665077209 0.5 0.8660254 0 250 250 250
-0.24600000679493 0.914929807186127 0.533333361148834 0.5 0.8660254 0 250 250 250
0.0669872984290123 0.734226524829865 0.0500000007450581 0.5 0.8660254 0 250 250 250
0.0669872984290123 0.734226524829865 0.533333361148834 0.5 0.8660254 0 250 250 250
0.0669872984290123 0.734226524829865 1.01666665077209 0.5 0.8660254 0 250 250 250
0.0669872984290123 0.734226524829865 1.5 -0.5 0.8660254 0 250 250 250
0.496000021696091 0.981917083263397 -5.55111512312578E-17 -0.5 0.8660254 0 250 250 250
0.496000021696091 0.981917083263397 0.739940166473389 -0.5 0.8660254 0 250 250 250
0.288323789834976 0.862015187740326 0.739940166473389 -0.5 0.8660254 0 250 250 250
0.0806475728750229 0.74211323261261 0.739940166473389 -0.5 0.8660254 0 250 250 250
0.0806475356221199 0.74211323261261 1.5 -0.5 0.8660254 0 250 250 250
0.0806475579738617 0.74211323261261 1.11997008323669 -0.5 0.8660254 0 250 250 250
0.0669872984290123 0.734226524829865 0.0500000007450581 -0.5 0.8660254 0 250 250 250
0.0806475728750229 0.74211323261261 0.0500000007450581 -0.5 0.8660254 0 250 250 250
0.174240484833717 0.796149134635925 0.375 -0.5 0.8660254 0 250 250 250
0.174240484833717 0.796149134635925 0.1875 -0.5 0.8660254 0 250 250 250
0.120613887906075 0.765187799930573 0.375 -0.5 0.8660254 0 250 250 250
0.120613887906075 0.765187799930573 0.1875 -0.5 0.8660254 0 250 250 250
0.120613887906075 0.765187799930573 0.09375 -0.5 0.8660254 0 250 250 250
0.0938005894422531 0.749707162380219 0.1875 -0.5 0.8660254 0 250 250 250
0.0938005894422531 0.749707162380219 0.09375 -0.5 0.8660254 0 250 250 250
0.0806475728750229 0.74211323261261 -6.93889390390723E-18 -0.5 0.8660254 0 250 250 250
0.288323789834976 0.862015187740326 -3.12250225675825E-17 -0.5 0.8660254 0 250 250 250
0.0669872984290123 0.734226524829865 1.01666665077209 -0.5 0.8660254 0 250 250 250
0.0669872984290123 0.734226524829865 0.533333361148834 -0.5 0.8660254 0 250 250 250
3 5 0 3
3 5 7 1
3 4 5 3
3 5 4 7
3 4 6 7
3 2 4 3
4 16 8 10 12
3 14 9 15
4 15 16 12 13
3 11 14 13
3 13 14 15
3 22 17 21
3 22 21 20
4 19 18 23 22
3 20 19 22
3 29 27 28
3 26 29 28
3 28 24 26
3 29 26 25
3 37 36 30
3 38 31 35
3 35 36 37
3 34 37 32
3 33 38 34
3 37 34 38
3 35 37 38
4 67 52 46 66
4 61 59 49 60
4 58 56 50 57
4 47 51 65 62
3 57 50 63
3 65 51 57
3 63 65 57
4 65 63 55 64
4 62 65 64 52
3 63 50 60
3 60 49 53
3 53 55 63
3 63 60 53
4 55 53 48 54
3 64 55 54
3 46 52 64
3 54 46 64
3 45 39 48
3 41 54 48
3 53 45 48
3 45 53 49
3 41 48 39
3 40 45 49
3 40 49 59
3 61 40 59
3 61 60 56
3 50 56 60
3 40 61 44
3 44 61 56
3 66 46 41
3 67 66 42
3 41 42 66
3 47 67 42
3 62 52 67
3 58 57 44
3 51 44 57
3 42 43 47
3 51 47 43
3 47 62 67
3 44 51 43
3 58 44 56
3 41 46 54
4 78 80 79 77
3 73 68 79
3 74 79 68
3 80 73 79
3 69 72 80
3 73 80 72
4 76 69 80 78
4 77 74 70 75
3 79 74 77
3 71 76 78
3 78 75 71
3 75 78 77
3 84 81 85
3 84 88 82
3 88 84 85
4 88 85 86 87
3 83 86 85
3 92 93 94
3 89 92 95
3 94 95 92
3 95 94 96
3 96 97 90
3 96 98 95
3 98 91 95
3 96 94 97
3 102 104 99
4 104 105 101 100
3 105 102 103
3 102 105 104
3 118 114 116
3 113 118 115
3 114 118 113
4 117 120 118 116
4 120 119 115 118
4 115 122 121 113
3 121 106 112
3 113 121 112
3 106 121 122
3 122 108 106
3 107 114 112
3 113 112 114
3 116 114 107
3 115 119 122
3 109 119 120
3 119 109 108
3 110 109 120
3 111 117 116
3 120 117 111
3 111 110 120
3 116 107 111
3 108 122 119
4 127 129 128 123
4 124 125 130 126
4 126 130 129 127
4 140 141 143 142
4 143 144 146 145
3 138 150 145
3 146 147 139
3 144 147 146
3 138 146 139
3 142 150 135
3 137 149 131
3 136 137 131
3 135 149 137
3 135 150 149
3 145 146 138
3 144 141 148
3 143 141 144
4 148 134 133 132
3 148 147 144
3 142 143 145
3 141 140 148
3 140 134 148
3 140 135 134
3 142 135 140
3 150 142 145
0 0 0 255 250 250 250 255 0 0 0 255 255 255 255 255 0 0
