ply
format ascii 1.0
comment File exported by Rhinoceros Version 7.0
element vertex 144
property float x
property float y
property float z
property float nx
property float ny
property float nz
property uchar red
property uchar green
property uchar blue
element face 133
property list uchar uint vertex_indices
element material 1
property uchar ambient_red
property uchar ambient_green
property uchar ambient_blue
property uchar ambient_alpha
property uchar diffuse_red
property uchar diffuse_green
property uchar diffuse_blue
property uchar diffuse_alpha
property uchar emissive_red
property uchar emissive_green
property uchar emissive_blue
property uchar emissive_alpha
property uchar specular_red
property uchar specular_green
property uchar specular_blue
property uchar specular_alpha
property double shine
property double transparency
end_header
0.0806475728750229 0.74211323261261 -0.5 -1 0 0 250 250 250
0.0806475728750229 0.74211323261261 -6.93889390390723E-18 -1 0 0 250 250 250
0.0806475728750229 0.262505561113358 -0.5 -1 0 0 250 250 250
0.0806475728750229 0.74211323261261 -0.25 -1 0 0 250 250 250
0.0806475728750229 0.502309381961823 -0.5 -1 0 0 250 250 250
0.0806475728750229 0.262505561113358 -0.25 -1 0 0 250 250 250
0.0806475728750229 0.262505561113358 -5.55111512312578E-17 -1 0 0 250 250 250
0.0806475728750229 0.502309381961823 -3.12250225675825E-17 -1 0 0 250 250 250
0.0806475728750229 0.262505561113358 -0.5 0.5 -0.8660254 0 250 250 250
0.0806475728750229 0.262505561113358 0.739940166473389 0.5 -0.8660254 0 250 250 250
0.496000021696091 0.502309381961823 -0.5 0.5 -0.8660254 0 250 250 250
0.496000021696091 0.502309381961823 0.739940166473389 0.5 -0.8660254 0 250 250 250
0.0806475728750229 0.262505561113358 -5.55111512312578E-17 0.5 -0.8660254 0 250 250 250
0.0806475728750229 0.262505561113358 -0.25 0.5 -0.8660254 0 250 250 250
0.288323789834976 0.382407486438751 0.739940166473389 0.5 -0.8660254 0 250 250 250
0.496000021696091 0.502309381961823 -0.25 0.5 -0.8660254 0 250 250 250
0.496000021696091 0.502309381961823 0 0.5 -0.8660254 0 250 250 250
0.0806475728750229 0.262505561113358 -0.5 0 0 -1 250 250 250
0.496000021696091 0.981917083263397 -0.5 0 0 -1 250 250 250
0.288323789834976 0.862015187740326 -0.5 0 0 -1 250 250 250
0.0806475728750229 0.74211323261261 -0.5 0 0 -1 250 250 250
0.0806475728750229 0.502309381961823 -0.5 0 0 -1 250 250 250
0.496000021696091 0.502309381961823 -0.5 0 0 -1 250 250 250
0.496000021696091 0.74211323261261 -0.5 0 0 -1 250 250 250
0.0806475728750229 0.262505561113358 0.739940166473389 0 0 1 250 250 250
0.0806475728750229 0.74211323261261 0.739940166473389 0 0 1 250 250 250
0.288323789834976 0.382407486438751 0.739940166473389 0 0 1 250 250 250
0.496000021696091 0.502309381961823 0.739940166473389 0 0 1 250 250 250
0.288323789834976 0.622211337089539 0.739940166473389 0 0 1 250 250 250
0.0806475728750229 0.502309381961823 0.739940166473389 0 0 1 250 250 250
0.0806475505232811 0.74211323261261 1.5 -0.5 -0.8660254 0 250 250 250
0.496000021696091 0.502309381961823 0.739940166473389 -0.5 -0.8660254 0 250 250 250
0.495999991893768 0.502309381961823 1.5 -0.5 -0.8660254 0 250 250 250
0.0806475728750229 0.74211323261261 0.739940166473389 -0.5 -0.8660254 0 250 250 250
0.288323789834976 0.622211337089539 0.739940166473389 -0.5 -0.8660254 0 250 250 250
0.496000021696091 0.502309381961823 1.11997008323669 -0.5 -0.8660254 0 250 250 250
0.0806475654244423 0.74211323261261 1.11997008323669 -0.5 -0.8660254 0 250 250 250
0.495999991893768 1.24600005149841 0.0500000007450581 0 1 0 250 250 250
0.495999991893768 1.24600005149841 1.5 0 1 0 250 250 250
-0.24600000679493 1.24600005149841 0.0500000007450581 0 1 0 250 250 250
-0.24600000679493 1.24600005149841 1.5 0 1 0 250 250 250
0.495999991893768 1.24600005149841 0.774999976158142 0 1 0 250 250 250
0.125 1.24600005149841 0.0500000007450581 0 1 0 250 250 250
-0.24600000679493 1.24600005149841 0.774999976158142 0 1 0 250 250 250
0.125 1.24600005149841 1.5 0 1 0 250 250 250
-0.24600000679493 1.24600005149841 0.0500000007450581 -1 0 0 250 250 250
-0.24600000679493 1.24600005149841 1.5 -1 0 0 250 250 250
-0.24600000679493 0.946476817131042 1.5 -1 0 0 250 250 250
-0.24600000679493 1.24600005149841 0.774999976158142 -1 0 0 250 250 250
-0.24600000679493 0.946476817131042 0.0500000007450581 -1 0 0 250 250 250
-0.24600000679493 0.946476817131042 0.774999976158142 -1 0 0 250 250 250
-0.24600000679493 1.24600005149841 1.5 0 0 1 250 250 250
0.495999991893768 0.502309381961823 1.5 0 0 1 250 250 250
0.495999991893768 1.24600005149841 1.5 0 0 1 250 250 250
0.495999991893768 0.874154686927795 1.5 0 0 1 250 250 250
0.125 1.24600005149841 1.5 0 0 1 250 250 250
-0.24600000679493 0.946476817131042 1.5 0 0 1 250 250 250
0.0806475505232811 0.75788676738739 1.5 0 0 1 250 250 250
0.0806475505232811 0.74211323261261 1.5 0 0 1 250 250 250
0.125 0.874154686927795 1.5 2.220446E-16 0 1 250 250 250
-0.0604999996721745 0.874154686927795 1.5 2.220446E-16 0 1 250 250 250
0.125 0.781193375587463 1.5 2.220446E-16 0 1 250 250 250
0.0322499983012676 0.874154686927795 1.5 2.220446E-16 0 1 250 250 250
0.310499995946884 0.874154686927795 1.5 2.220446E-16 0 1 250 250 250
0.310499995946884 0.688232064247131 1.5 2.220446E-16 0 1 250 250 250
0.125 1.06007730960846 1.5 0 0 1 250 250 250
-0.0604999996721745 1.06007730960846 1.5 0 0 1 250 250 250
0.310499995946884 0.781193375587463 1.5 2.220446E-16 0 1 250 250 250
0.217749997973442 0.874154686927795 1.5 2.220446E-16 0 1 250 250 250
0.217749997973442 0.688232064247131 1.5 2.220446E-16 0 1 250 250 250
0.217749997973442 0.781193375587463 1.5 2.220446E-16 0 1 250 250 250
0.310499995946884 1.06007730960846 1.5 0 0 1 250 250 250
0.496000021696091 0.981917083263397 -0.5 -0.5000001 0.8660254 0 250 250 250
0.496000021696091 0.981917083263397 0.0500000007450581 -0.5000001 0.8660254 0 250 250 250
0.0806475728750229 0.74211323261261 -0.5 -0.5000001 0.8660254 2.775558E-17 250 250 250
0.0806475728750229 0.74211323261261 0.0500000007450581 -0.5000001 0.8660254 2.775558E-17 250 250 250
0.288323789834976 0.862015187740326 -0.5 -0.5000001 0.8660254 9.614813E-17 250 250 250
0.0806475728750229 0.74211323261261 -0.25 -0.5000001 0.8660254 9.614813E-17 250 250 250
0.0806475728750229 0.74211323261261 -6.93889390390723E-18 -0.5000001 0.8660254 9.614813E-17 250 250 250
0.496000021696091 0.981917083263397 -0.224999994039536 -0.5000001 0.8660254 9.614813E-17 250 250 250
0.288323789834976 0.862015187740326 0.0500000007450581 -0.5000001 0.8660254 9.614813E-17 250 250 250
0.288323789834976 0.862015187740326 -0.224999994039536 -0.5000001 0.8660254 1.387779E-17 250 250 250
0.288323789834976 0.862015187740326 -0.0874999985098839 -0.5000001 0.8660254 1.387779E-17 250 250 250
0.18448568880558 0.802064180374146 -0.224999994039536 -0.5000001 0.8660254 2.081668E-17 250 250 250
0.18448568880558 0.802064180374146 -0.0874999985098839 -0.5000001 0.8660254 2.081668E-17 250 250 250
0.496000021696091 0.502309381961823 -0.5 1 0 0 250 250 250
0.496000021696091 0.981917083263397 -0.5 1 0 0 250 250 250
0.496000021696091 0.981917083263397 0.0500000007450581 1 0 0 250 250 250
0.496000021696091 0.981917083263397 -0.224999994039536 1 0 0 250 250 250
0.496000021696091 0.502309381961823 0 1 0 0 250 250 250
0.496000021696091 0.502309381961823 -0.25 1 0 0 250 250 250
0.496000021696091 0.74211323261261 -0.5 1 0 0 250 250 250
0.496000021696091 0.74211323261261 0.025000000372529 1 0 0 250 250 250
0.496000021696091 0.502309381961823 0 1 0 0 250 250 250
0.495999991893768 0.502309381961823 1.5 1 0 0 250 250 250
0.495999991893768 1.24600005149841 1.5 1 0 0 250 250 250
0.496000021696091 0.74211323261261 0.025000000372529 1 0 0 250 250 250
0.496000021696091 0.981917083263397 0.0500000007450581 1 0 0 250 250 250
0.495999991893768 0.874154686927795 1.5 1 0 0 250 250 250
0.495999991893768 1.24600005149841 0.0500000007450581 1 0 0 250 250 250
0.495999991893768 1.24600005149841 0.774999976158142 1 0 0 250 250 250
0.496000021696091 0.502309381961823 0.739940166473389 1 0 0 250 250 250
0.496000021696091 0.502309381961823 1.11997008323669 1 0 0 250 250 250
-0.24600000679493 1.24600005149841 0.0500000007450581 0 0 -1 250 250 250
0.495999991893768 1.24600005149841 0.0500000007450581 0 0 -1 250 250 250
0.125 1.24600005149841 0.0500000007450581 0 0 -1 250 250 250
-0.24600000679493 0.946476817131042 0.0500000007450581 0 0 -1 250 250 250
0.0806475728750229 0.74211323261261 0.0500000007450581 0 0 -1 250 250 250
0.288323789834976 0.862015187740326 0.0500000007450581 0 0 -1 250 250 250
0.496000021696091 0.981917083263397 0.0500000007450581 0 0 -1 250 250 250
0.0806475505232811 0.75788676738739 0.0500000007450581 0 0 -1 250 250 250
0.125 0.991537153720856 0.0500000007450581 -6.938894E-18 0 -1 250 250 250
0.125 0.864305794239044 0.0500000007450581 -3.469447E-18 0 -1 250 250 250
-0.0604999996721745 0.991537153720856 0.0500000007450581 -6.938894E-18 0 -1 250 250 250
-0.0604999996721745 0.864305794239044 0.0500000007450581 -3.469447E-18 0 -1 250 250 250
0.125 0.800690054893494 0.0500000007450581 -1.734723E-18 0 -1 250 250 250
0.0322499983012676 0.864305794239044 0.0500000007450581 -3.469447E-18 0 -1 250 250 250
0.0322499983012676 0.800690054893494 0.0500000007450581 -1.734723E-18 0 -1 250 250 250
0.078625001013279 0.800690054893494 0.0500000007450581 -1.734723E-18 0 -1 250 250 250
-0.24600000679493 0.946476817131042 0.0500000007450581 -0.5 -0.8660254 0 250 250 250
-0.24600000679493 0.946476817131042 1.5 -0.5 -0.8660254 0 250 250 250
-0.24600000679493 0.946476817131042 0.774999976158142 -0.5 -0.8660254 0 250 250 250
0.0806475505232811 0.75788676738739 0.0500000007450581 -0.5 -0.8660254 0 250 250 250
0.0806475505232811 0.75788676738739 1.5 -0.5 -0.8660254 0 250 250 250
0.0806475505232811 0.75788676738739 0.774999976158142 -0.5 -0.8660254 0 250 250 250
0.0806475728750229 0.262505561113358 -5.55111512312578E-17 -1 0 0 250 250 250
0.0806475505232811 0.75788676738739 1.5 -1 0 0 250 250 250
0.0806475728750229 0.74211323261261 0.739940166473389 -1 -1.17617E-17 0 250 250 250
0.0806475728750229 0.502309381961823 0.739940166473389 -1 -1.17617E-17 0 250 250 250
0.0806475728750229 0.262505561113358 0.739940166473389 -1 -1.17617E-17 0 250 250 250
0.0806475505232811 0.74211323261261 1.5 -1 0 0 250 250 250
0.0806475654244423 0.74211323261261 1.11997008323669 -1 -1.17617E-17 0 250 250 250
0.0806475728750229 0.74211323261261 0.0500000007450581 -1 -2.205318E-18 0 250 250 250
0.0806475505232811 0.75788676738739 0.0500000007450581 -1 0 0 250 250 250
0.0806475505232811 0.634041428565979 0.375 -1 -5.880848E-18 0 250 250 250
0.0806475505232811 0.695964097976685 0.375 -1 -5.880848E-18 0 250 250 250
0.0806475505232811 0.634041428565979 0.1875 -1 -2.940424E-18 0 250 250 250
0.0806475505232811 0.695964097976685 0.1875 -1 -2.940424E-18 0 250 250 250
0.0806475505232811 0.726925432682037 0.1875 -1 -2.940424E-18 0 250 250 250
0.0806475505232811 0.695964097976685 0.09375 -1 -1.470212E-18 0 250 250 250
0.0806475505232811 0.726925432682037 0.09375 -1 -1.470212E-18 0 250 250 250
0.0806475728750229 0.74211323261261 -6.93889390390723E-18 -1 0 0 250 250 250
0.0806475728750229 0.502309381961823 -3.12250225675825E-17 -1 0 0 250 250 250
0.0806475505232811 0.75788676738739 0.774999976158142 -1 0 0 250 250 250
3 3 0 4
3 3 7 1
4 5 3 4 2
3 3 5 7
3 5 6 7
4 13 8 10 15
3 14 9 12
4 12 13 15 16
3 11 14 16
3 16 14 12
3 22 17 21
3 19 21 20
3 19 23 22
3 23 19 18
3 21 19 22
3 26 29 24
3 28 25 29
3 27 28 26
3 29 26 28
3 34 36 33
3 32 30 36
3 35 34 31
3 35 32 36
3 34 35 36
3 41 37 42
3 41 44 38
3 43 41 42
3 41 43 44
3 43 40 44
3 39 43 42
4 48 45 49 50
4 46 48 50 47
3 68 63 71
3 65 59 68
3 71 65 68
3 62 59 65
3 66 60 62
3 65 66 62
4 63 68 70 67
4 68 59 61 70
4 67 70 69 64
3 57 62 60
3 57 58 61
3 69 61 58
3 62 57 61
3 56 57 60
3 59 62 61
3 66 51 56
3 60 66 56
3 55 51 66
3 65 55 66
3 54 67 64
3 69 52 64
3 52 54 64
3 52 69 58
3 65 71 55
3 53 71 54
3 63 54 71
3 55 71 53
3 54 63 67
3 69 70 61
4 84 82 81 83
3 81 72 76
3 79 72 81
3 73 79 82
3 81 82 79
3 80 73 82
3 83 81 76
3 77 83 74
3 76 74 83
3 84 83 77
3 75 80 84
3 84 80 82
3 84 78 75
3 78 84 77
3 91 92 90
3 90 92 89
3 91 90 85
3 88 91 86
3 88 87 92
3 91 88 92
3 101 93 96
3 101 98 102
3 102 98 94
3 96 97 101
3 100 97 99
3 95 98 100
3 97 100 98
3 101 97 98
3 116 111 112
3 113 116 114
3 111 116 113
3 118 112 115
3 116 118 117
3 112 118 116
3 117 114 116
3 117 106 114
3 110 106 117
3 118 110 117
3 113 106 103
3 114 106 113
3 105 113 103
3 115 107 110
3 111 108 112
3 115 112 108
3 115 108 107
3 111 113 105
4 105 104 109 111
3 109 108 111
3 118 115 110
4 124 121 119 122
4 123 120 121 124
4 135 137 136 134
4 138 140 139 137
4 125 129 128 142
3 137 139 136
3 142 136 139
3 139 141 142
3 136 142 134
3 134 142 128
3 138 137 135
3 127 134 128
3 135 134 127
3 133 140 138
3 140 133 132
3 140 132 141
3 141 139 140
3 143 133 138
3 126 131 130
3 131 126 143
3 138 127 143
3 127 131 143
3 127 138 135
0 0 0 255 250 250 250 255 0 0 0 255 255 255 255 255 0 0
