ply
format ascii 1.0
comment File exported by Rhinoceros Version 7.0
element vertex 33
property float x
property float y
property float z
property float nx
property float ny
property float nz
property uchar red
property uchar green
property uchar blue
element face 55
property list uchar uint vertex_indices
element material 1
property uchar ambient_red
property uchar ambient_green
property uchar ambient_blue
property uchar ambient_alpha
property uchar diffuse_red
property uchar diffuse_green
property uchar diffuse_blue
property uchar diffuse_alpha
property uchar emissive_red
property uchar emissive_green
property uchar emissive_blue
property uchar emissive_alpha
property uchar specular_red
property uchar specular_green
property uchar specular_blue
property uchar specular_alpha
property double shine
property double transparency
end_header
0.919352471828461 0.74211323261261 -0.5 0.7336569 0.526354 -0.4297662 250 250 250
0.711676239967346 0.862015187740326 -0.5 0.3535534 0.6123725 -0.7071068 250 250 250
0.504000008106232 0.981917083263397 -0.5 -0.5685273 0.5385603 -0.6218758 250 250 250
0.504000008106232 0.74211323261261 -0.5 -0.7071068 6.26525E-16 -0.7071068 250 250 250
0.504000008106232 0.502309381961823 -0.5 -0.7336569 -0.526354 -0.4297662 250 250 250
1.24600005149841 1.24600005149841 0.754999995231628 0.7071068 0.7071068 0 250 250 250
0.504000008106232 1.24600005149841 0.754999995231628 -0.7071068 0.7071068 0 250 250 250
0.504000008106232 0.502309381961823 0.739940166473389 -0.8660254 -0.5 0 250 250 250
1.24600005149841 0.0739155039191246 1.5 0.5685273 -0.5385603 0.6218758 250 250 250
0.919352471828461 0.262505561113358 0.00999999977648258 0.3535534 -0.6123724 -0.7071068 250 250 250
1.24600005149841 0.0739155039191246 0.754999995231628 0.5 -0.8660254 0 250 250 250
1.24600005149841 0.659957766532898 0.00999999977648258 0.7071068 0 -0.7071068 250 250 250
0.504000008106232 1.24600005149841 1.5 -0.7071068 0 0.7071068 250 250 250
1.24600005149841 1.24600005149841 1.5 0.5 0.7071068 0.5 250 250 250
0.504000008106232 0.502309381961823 1.5 -0.3535534 -0.6123725 0.7071068 250 250 250
1.24600005149841 0.659957766532898 1.5 0.7071068 0 0.7071068 250 250 250
0.919352471828461 0.262505561113358 -0.5 0.3535534 -0.6123724 -0.7071068 250 250 250
0.919352471828461 0.502309381961823 -0.5 0.7071068 2.439966E-08 -0.7071068 250 250 250
0.919352471828461 0.74211323261261 -0.245000004768372 0.8660254 0.5 0 250 250 250
0.919352471828461 0.262505561113358 -0.245000004768372 0.5000001 -0.8660254 0 250 250 250
0.919352471828461 0.502309381961823 0.00999999977648258 0.7071068 2.439966E-08 -0.7071068 250 250 250
0.504000008106232 0.981917083263397 -0.245000004768372 -0.5 0.8660254 0 250 250 250
0.711676239967346 0.862015187740326 0.00999999977648258 0.3535534 0.6123725 -0.7071068 250 250 250
0.504000008106232 0.502309381961823 0.00999999977648258 -0.9238796 -0.3826834 0 250 250 250
0.504000008106232 0.74211323261261 0.00999999977648258 -1 4.153313E-16 0 250 250 250
0.711676239967346 0.382407486438751 -0.5 -0.3535534 -0.6123725 -0.7071068 250 250 250
0.504000008106232 0.502309381961823 -0.245000004768372 -0.8660254 -0.5 0 250 250 250
0.711676239967346 0.382407486438751 0.00999999977648258 -0.5 -0.8660254 0 250 250 250
0.504000008106232 1.24600005149841 0.00999999977648258 -0.7071068 0.5 -0.5 250 250 250
1.24600005149841 0.0739155039191246 0.00999999977648258 0.1821432 -0.7616392 -0.6218758 250 250 250
1.24600005149841 1.24600005149841 0.00999999977648258 0.7071068 0.5 -0.5 250 250 250
0.504000008106232 0.981917083263397 0.00999999977648258 -0.7715564 0.2589432 -0.5810758 250 250 250
0.919352471828461 0.74211323261261 0.00999999977648258 0.7336569 0.526354 -0.4297662 250 250 250
3 1 4 3
3 3 2 1
3 1 25 4
3 17 16 25
3 25 0 17
3 1 0 25
4 5 30 28 6
4 13 5 6 12
3 6 28 31
4 12 6 7 14
3 7 6 31
3 7 24 23
3 24 7 31
3 7 23 27
4 14 7 10 8
3 9 7 27
3 10 9 29
3 9 10 7
3 10 29 11
3 10 15 8
3 5 10 11
3 10 5 15
3 5 13 15
3 30 5 11
4 12 14 15 13
3 14 8 15
3 19 16 17
3 19 20 9
3 20 19 17
3 17 18 20
3 18 32 20
3 0 18 17
3 18 0 1
3 18 22 32
3 21 18 1
3 18 21 22
3 21 31 22
3 2 21 1
3 21 2 3
3 21 24 31
3 24 21 3
4 24 3 26 23
3 4 26 3
3 26 4 25
3 26 27 23
3 27 26 25
4 27 25 19 9
3 16 19 25
3 30 22 28
3 22 31 28
3 30 32 22
3 11 29 9
3 32 30 11
3 9 20 11
3 20 32 11
0 0 0 255 250 250 250 255 0 0 0 255 255 255 255 255 0 0
