ply
format ascii 1.0
comment File exported by Rhinoceros Version 7.0
element vertex 198
property float x
property float y
property float z
property float nx
property float ny
property float nz
property uchar red
property uchar green
property uchar blue
element face 132
property list uchar uint vertex_indices
element material 1
property uchar ambient_red
property uchar ambient_green
property uchar ambient_blue
property uchar ambient_alpha
property uchar diffuse_red
property uchar diffuse_green
property uchar diffuse_blue
property uchar diffuse_alpha
property uchar emissive_red
property uchar emissive_green
property uchar emissive_blue
property uchar emissive_alpha
property uchar specular_red
property uchar specular_green
property uchar specular_blue
property uchar specular_alpha
property double shine
property double transparency
end_header
0.537500023841858 0.254999995231628 0 0.9822897 -0.1873682 0 250 250 250
0.537500023841858 0.254999995231628 -0.100000001490116 0.9822897 -0.1873682 0 250 250 250
0.53486704826355 0.24119645357132 0 0.9268622 -0.3754017 0 250 250 250
0.53486704826355 0.24119645357132 -0.100000001490116 0.9268622 -0.3754017 0 250 250 250
0.526516497135162 0.228483498096466 0 0.7071071 -0.7071065 0 250 250 250
0.526516497135162 0.228483498096466 -0.100000001490116 0.7071071 -0.7071065 0 250 250 250
0.513803541660309 0.220132932066917 0 0.3754007 -0.9268627 0 250 250 250
0.513803541660309 0.220132932066917 -0.100000001490116 0.3754007 -0.9268627 0 250 250 250
0.5 0.217500001192093 0 0 -1 0 250 250 250
0.5 0.217500001192093 -0.100000001490116 0 -1 0 250 250 250
0.486196458339691 0.220132932066917 0 -0.3754007 -0.9268627 0 250 250 250
0.486196458339691 0.220132932066917 -0.100000001490116 -0.3754007 -0.9268627 0 250 250 250
0.473483502864838 0.228483498096466 0 -0.7071071 -0.7071065 0 250 250 250
0.473483502864838 0.228483498096466 -0.100000001490116 -0.7071071 -0.7071065 0 250 250 250
0.46513295173645 0.24119645357132 0 -0.9268626 -0.3754008 0 250 250 250
0.46513295173645 0.24119645357132 -0.100000001490116 -0.9268626 -0.3754008 0 250 250 250
0.462500005960464 0.254999995231628 0 -1 0 0 250 250 250
0.462500005960464 0.254999995231628 -0.100000001490116 -1 0 0 250 250 250
0.46513295173645 0.268803536891937 0 -0.9268626 0.3754008 0 250 250 250
0.46513295173645 0.268803536891937 -0.100000001490116 -0.9268626 0.3754008 0 250 250 250
0.473483502864838 0.281516492366791 0 -0.7071074 0.7071062 0 250 250 250
0.473483502864838 0.281516492366791 -0.100000001490116 -0.7071074 0.7071062 0 250 250 250
0.486196458339691 0.289867073297501 0 -0.3754006 0.9268627 0 250 250 250
0.486196458339691 0.289867073297501 -0.100000001490116 -0.3754006 0.9268627 0 250 250 250
0.5 0.292499989271164 0 0 1 0 250 250 250
0.5 0.292499989271164 -0.100000001490116 0 1 0 250 250 250
0.513803541660309 0.289867073297501 0 0.3754006 0.9268627 0 250 250 250
0.513803541660309 0.289867073297501 -0.100000001490116 0.3754006 0.9268627 0 250 250 250
0.526516497135162 0.281516492366791 0 0.7071074 0.7071062 0 250 250 250
0.526516497135162 0.281516492366791 -0.100000001490116 0.7071074 0.7071062 0 250 250 250
0.53486704826355 0.268803536891937 0 0.9268622 0.3754017 0 250 250 250
0.53486704826355 0.268803536891937 -0.100000001490116 0.9268622 0.3754017 0 250 250 250
0.537500023841858 0.254999995231628 0 0.9822897 0.1873682 0 250 250 250
0.537500023841858 0.254999995231628 -0.100000001490116 0.9822897 0.1873682 0 250 250 250
0.537500023841858 0.254999995231628 0 0 0 1 250 250 250
0.53486704826355 0.24119645357132 0 0 0 1 250 250 250
0.526516497135162 0.228483498096466 0 0 0 1 250 250 250
0.513803541660309 0.220132932066917 0 0 0 1 250 250 250
0.5 0.217500001192093 0 0 0 1 250 250 250
0.486196458339691 0.220132932066917 0 0 0 1 250 250 250
0.473483502864838 0.228483498096466 0 0 0 1 250 250 250
0.46513295173645 0.24119645357132 0 0 0 1 250 250 250
0.462500005960464 0.254999995231628 0 0 0 1 250 250 250
0.46513295173645 0.268803536891937 0 0 0 1 250 250 250
0.473483502864838 0.281516492366791 0 0 0 1 250 250 250
0.486196458339691 0.289867073297501 0 0 0 1 250 250 250
0.5 0.292499989271164 0 0 0 1 250 250 250
0.513803541660309 0.289867073297501 0 0 0 1 250 250 250
0.526516497135162 0.281516492366791 0 0 0 1 250 250 250
0.53486704826355 0.268803536891937 0 0 0 1 250 250 250
0.537500023841858 0.254999995231628 -0.100000001490116 0 0 -1 250 250 250
0.53486704826355 0.24119645357132 -0.100000001490116 0 0 -1 250 250 250
0.526516497135162 0.228483498096466 -0.100000001490116 0 0 -1 250 250 250
0.513803541660309 0.220132932066917 -0.100000001490116 0 0 -1 250 250 250
0.5 0.217500001192093 -0.100000001490116 0 0 -1 250 250 250
0.486196458339691 0.220132932066917 -0.100000001490116 0 0 -1 250 250 250
0.473483502864838 0.228483498096466 -0.100000001490116 0 0 -1 250 250 250
0.46513295173645 0.24119645357132 -0.100000001490116 0 0 -1 250 250 250
0.462500005960464 0.254999995231628 -0.100000001490116 0 0 -1 250 250 250
0.46513295173645 0.268803536891937 -0.100000001490116 0 0 -1 250 250 250
0.473483502864838 0.281516492366791 -0.100000001490116 0 0 -1 250 250 250
0.486196458339691 0.289867073297501 -0.100000001490116 0 0 -1 250 250 250
0.5 0.292499989271164 -0.100000001490116 0 0 -1 250 250 250
0.513803541660309 0.289867073297501 -0.100000001490116 0 0 -1 250 250 250
0.526516497135162 0.281516492366791 -0.100000001490116 0 0 -1 250 250 250
0.53486704826355 0.268803536891937 -0.100000001490116 0 0 -1 250 250 250
0.74967622756958 0.622500002384186 0 0.9822905 -0.1873641 0 250 250 250
0.74967622756958 0.622500002384186 -0.100000001490116 0.9822905 -0.1873641 0 250 250 250
0.747043311595917 0.608696460723877 0 0.9268624 -0.3754013 0 250 250 250
0.747043311595917 0.608696460723877 -0.100000001490116 0.9268624 -0.3754013 0 250 250 250
0.738692700862885 0.595983505249023 0 0.7071064 -0.7071072 0 250 250 250
0.738692700862885 0.595983505249023 -0.100000001490116 0.7071064 -0.7071072 0 250 250 250
0.725979804992676 0.587632954120636 0 0.3754024 -0.9268619 0 250 250 250
0.725979804992676 0.587632954120636 -0.100000001490116 0.3754024 -0.9268619 0 250 250 250
0.712176203727722 0.584999978542328 0 -4.020003E-07 -1 0 250 250 250
0.712176203727722 0.584999978542328 -0.100000001490116 -4.020003E-07 -1 0 250 250 250
0.698372662067413 0.587632954120636 0 -0.3754017 -0.9268622 0 250 250 250
0.698372662067413 0.587632954120636 -0.100000001490116 -0.3754017 -0.9268622 0 250 250 250
0.68565970659256 0.595983505249023 0 -0.7071068 -0.7071068 0 250 250 250
0.68565970659256 0.595983505249023 -0.100000001490116 -0.7071068 -0.7071068 0 250 250 250
0.677309155464172 0.608696460723877 0 -0.926863 -0.3753998 0 250 250 250
0.677309155464172 0.608696460723877 -0.100000001490116 -0.926863 -0.3753998 0 250 250 250
0.674676239490509 0.622500002384186 0 -1 0 0 250 250 250
0.674676239490509 0.622500002384186 -0.100000001490116 -1 0 0 250 250 250
0.677309155464172 0.636303544044495 0 -0.926863 0.3753998 0 250 250 250
0.677309155464172 0.636303544044495 -0.100000001490116 -0.926863 0.3753998 0 250 250 250
0.68565970659256 0.649016499519348 0 -0.7071068 0.7071068 0 250 250 250
0.68565970659256 0.649016499519348 -0.100000001490116 -0.7071068 0.7071068 0 250 250 250
0.698372662067413 0.657367050647736 0 -0.3754017 0.9268622 0 250 250 250
0.698372662067413 0.657367050647736 -0.100000001490116 -0.3754017 0.9268622 0 250 250 250
0.712176203727722 0.660000026226044 0 -4.020003E-07 1 0 250 250 250
0.712176203727722 0.660000026226044 -0.100000001490116 -4.020003E-07 1 0 250 250 250
0.725979804992676 0.657367050647736 0 0.3754024 0.9268619 0 250 250 250
0.725979804992676 0.657367050647736 -0.100000001490116 0.3754024 0.9268619 0 250 250 250
0.738692700862885 0.649016499519348 0 0.7071064 0.7071072 0 250 250 250
0.738692700862885 0.649016499519348 -0.100000001490116 0.7071064 0.7071072 0 250 250 250
0.747043311595917 0.636303544044495 0 0.9268624 0.3754013 0 250 250 250
0.747043311595917 0.636303544044495 -0.100000001490116 0.9268624 0.3754013 0 250 250 250
0.74967622756958 0.622500002384186 0 0.9822905 0.1873641 0 250 250 250
0.74967622756958 0.622500002384186 -0.100000001490116 0.9822905 0.1873641 0 250 250 250
0.74967622756958 0.622500002384186 0 0 0 1 250 250 250
0.747043311595917 0.608696460723877 0 0 0 1 250 250 250
0.738692700862885 0.595983505249023 0 0 0 1 250 250 250
0.725979804992676 0.587632954120636 0 0 0 1 250 250 250
0.712176203727722 0.584999978542328 0 0 0 1 250 250 250
0.698372662067413 0.587632954120636 0 0 0 1 250 250 250
0.68565970659256 0.595983505249023 0 0 0 1 250 250 250
0.677309155464172 0.608696460723877 0 0 0 1 250 250 250
0.674676239490509 0.622500002384186 0 0 0 1 250 250 250
0.677309155464172 0.636303544044495 0 0 0 1 250 250 250
0.68565970659256 0.649016499519348 0 0 0 1 250 250 250
0.698372662067413 0.657367050647736 0 0 0 1 250 250 250
0.712176203727722 0.660000026226044 0 0 0 1 250 250 250
0.725979804992676 0.657367050647736 0 0 0 1 250 250 250
0.738692700862885 0.649016499519348 0 0 0 1 250 250 250
0.747043311595917 0.636303544044495 0 0 0 1 250 250 250
0.74967622756958 0.622500002384186 -0.100000001490116 0 0 -1 250 250 250
0.747043311595917 0.608696460723877 -0.100000001490116 0 0 -1 250 250 250
0.738692700862885 0.595983505249023 -0.100000001490116 0 0 -1 250 250 250
0.725979804992676 0.587632954120636 -0.100000001490116 0 0 -1 250 250 250
0.712176203727722 0.584999978542328 -0.100000001490116 0 0 -1 250 250 250
0.698372662067413 0.587632954120636 -0.100000001490116 0 0 -1 250 250 250
0.68565970659256 0.595983505249023 -0.100000001490116 0 0 -1 250 250 250
0.677309155464172 0.608696460723877 -0.100000001490116 0 0 -1 250 250 250
0.674676239490509 0.622500002384186 -0.100000001490116 0 0 -1 250 250 250
0.677309155464172 0.636303544044495 -0.100000001490116 0 0 -1 250 250 250
0.68565970659256 0.649016499519348 -0.100000001490116 0 0 -1 250 250 250
0.698372662067413 0.657367050647736 -0.100000001490116 0 0 -1 250 250 250
0.712176203727722 0.660000026226044 -0.100000001490116 0 0 -1 250 250 250
0.725979804992676 0.657367050647736 -0.100000001490116 0 0 -1 250 250 250
0.738692700862885 0.649016499519348 -0.100000001490116 0 0 -1 250 250 250
0.747043311595917 0.636303544044495 -0.100000001490116 0 0 -1 250 250 250
0.325323790311813 0.622500002384186 0 0.9822901 -0.1873662 0 250 250 250
0.325323790311813 0.622500002384186 -0.100000001490116 0.9822901 -0.1873662 0 250 250 250
0.322690844535828 0.608696460723877 0 0.9268626 -0.3754008 0 250 250 250
0.322690844535828 0.608696460723877 -0.100000001490116 0.9268626 -0.3754008 0 250 250 250
0.31434029340744 0.595983505249023 0 0.7071068 -0.7071068 0 250 250 250
0.31434029340744 0.595983505249023 -0.100000001490116 0.7071068 -0.7071068 0 250 250 250
0.301627337932587 0.587632954120636 0 0.3754016 -0.9268622 0 250 250 250
0.301627337932587 0.587632954120636 -0.100000001490116 0.3754016 -0.9268622 0 250 250 250
0.287823766469955 0.584999978542328 0 -1.972077E-07 -1 0 250 250 250
0.287823766469955 0.584999978542328 -0.100000001490116 -1.972077E-07 -1 0 250 250 250
0.274020224809647 0.587632954120636 0 -0.3754017 -0.9268622 0 250 250 250
0.274020224809647 0.587632954120636 -0.100000001490116 -0.3754017 -0.9268622 0 250 250 250
0.261307269334793 0.595983505249023 0 -0.7071068 -0.7071068 0 250 250 250
0.261307269334793 0.595983505249023 -0.100000001490116 -0.7071068 -0.7071068 0 250 250 250
0.252956718206406 0.608696460723877 0 -0.9268626 -0.3754008 0 250 250 250
0.252956718206406 0.608696460723877 -0.100000001490116 -0.9268626 -0.3754008 0 250 250 250
0.25032377243042 0.622500002384186 0 -1 0 0 250 250 250
0.25032377243042 0.622500002384186 -0.100000001490116 -1 0 0 250 250 250
0.252956718206406 0.636303544044495 0 -0.9268626 0.3754008 0 250 250 250
0.252956718206406 0.636303544044495 -0.100000001490116 -0.9268626 0.3754008 0 250 250 250
0.261307269334793 0.649016499519348 0 -0.7071068 0.7071068 0 250 250 250
0.261307269334793 0.649016499519348 -0.100000001490116 -0.7071068 0.7071068 0 250 250 250
0.274020224809647 0.657367050647736 0 -0.3754017 0.9268622 0 250 250 250
0.274020224809647 0.657367050647736 -0.100000001490116 -0.3754017 0.9268622 0 250 250 250
0.287823766469955 0.660000026226044 0 -1.972077E-07 1 0 250 250 250
0.287823766469955 0.660000026226044 -0.100000001490116 -1.972077E-07 1 0 250 250 250
0.301627337932587 0.657367050647736 0 0.3754016 0.9268622 0 250 250 250
0.301627337932587 0.657367050647736 -0.100000001490116 0.3754016 0.9268622 0 250 250 250
0.31434029340744 0.649016499519348 0 0.7071068 0.7071068 0 250 250 250
0.31434029340744 0.649016499519348 -0.100000001490116 0.7071068 0.7071068 0 250 250 250
0.322690844535828 0.636303544044495 0 0.9268626 0.3754008 0 250 250 250
0.322690844535828 0.636303544044495 -0.100000001490116 0.9268626 0.3754008 0 250 250 250
0.325323790311813 0.622500002384186 0 0.9822901 0.1873662 0 250 250 250
0.325323790311813 0.622500002384186 -0.100000001490116 0.9822901 0.1873662 0 250 250 250
0.325323790311813 0.622500002384186 0 0 0 1 250 250 250
0.322690844535828 0.608696460723877 0 0 0 1 250 250 250
0.31434029340744 0.595983505249023 0 0 0 1 250 250 250
0.301627337932587 0.587632954120636 0 0 0 1 250 250 250
0.287823766469955 0.584999978542328 0 0 0 1 250 250 250
0.274020224809647 0.587632954120636 0 0 0 1 250 250 250
0.261307269334793 0.595983505249023 0 0 0 1 250 250 250
0.252956718206406 0.608696460723877 0 0 0 1 250 250 250
0.25032377243042 0.622500002384186 0 0 0 1 250 250 250
0.252956718206406 0.636303544044495 0 0 0 1 250 250 250
0.261307269334793 0.649016499519348 0 0 0 1 250 250 250
0.274020224809647 0.657367050647736 0 0 0 1 250 250 250
0.287823766469955 0.660000026226044 0 0 0 1 250 250 250
0.301627337932587 0.657367050647736 0 0 0 1 250 250 250
0.31434029340744 0.649016499519348 0 0 0 1 250 250 250
0.322690844535828 0.636303544044495 0 0 0 1 250 250 250
0.325323790311813 0.622500002384186 -0.100000001490116 0 0 -1 250 250 250
0.322690844535828 0.608696460723877 -0.100000001490116 0 0 -1 250 250 250
0.31434029340744 0.595983505249023 -0.100000001490116 0 0 -1 250 250 250
0.301627337932587 0.587632954120636 -0.100000001490116 0 0 -1 250 250 250
0.287823766469955 0.584999978542328 -0.100000001490116 0 0 -1 250 250 250
0.274020224809647 0.587632954120636 -0.100000001490116 0 0 -1 250 250 250
0.261307269334793 0.595983505249023 -0.100000001490116 0 0 -1 250 250 250
0.252956718206406 0.608696460723877 -0.100000001490116 0 0 -1 250 250 250
0.25032377243042 0.622500002384186 -0.100000001490116 0 0 -1 250 250 250
0.252956718206406 0.636303544044495 -0.100000001490116 0 0 -1 250 250 250
0.261307269334793 0.649016499519348 -0.100000001490116 0 0 -1 250 250 250
0.274020224809647 0.657367050647736 -0.100000001490116 0 0 -1 250 250 250
0.287823766469955 0.660000026226044 -0.100000001490116 0 0 -1 250 250 250
0.301627337932587 0.657367050647736 -0.100000001490116 0 0 -1 250 250 250
0.31434029340744 0.649016499519348 -0.100000001490116 0 0 -1 250 250 250
0.322690844535828 0.636303544044495 -0.100000001490116 0 0 -1 250 250 250
4 0 2 3 1
4 2 4 5 3
4 4 6 7 5
4 6 8 9 7
4 8 10 11 9
4 10 12 13 11
4 12 14 15 13
4 14 16 17 15
4 16 18 19 17
4 18 20 21 19
4 20 22 23 21
4 22 24 25 23
4 24 26 27 25
4 26 28 29 27
4 28 30 31 29
4 30 32 33 31
3 36 35 47
3 37 36 47
3 37 47 41
3 47 34 49
3 49 48 47
3 47 35 34
3 39 38 37
3 41 40 39
3 47 46 41
3 42 41 43
3 43 46 45
3 45 44 43
3 43 41 46
3 39 37 41
3 52 63 51
3 53 63 52
3 53 57 63
3 63 65 50
3 65 63 64
3 63 50 51
3 55 53 54
3 57 55 56
3 63 57 62
3 58 59 57
3 59 61 62
3 61 59 60
3 59 62 57
3 55 57 53
4 66 68 69 67
4 68 70 71 69
4 70 72 73 71
4 72 74 75 73
4 74 76 77 75
4 76 78 79 77
4 78 80 81 79
4 80 82 83 81
4 82 84 85 83
4 84 86 87 85
4 86 88 89 87
4 88 90 91 89
4 90 92 93 91
4 92 94 95 93
4 94 96 97 95
4 96 98 99 97
3 104 102 101
3 102 104 103
3 115 104 101
3 115 101 100
3 115 114 113
3 113 111 115
3 110 104 115
3 106 104 108
3 106 108 107
3 110 108 104
3 112 111 113
3 110 115 111
3 108 110 109
3 106 105 104
3 120 117 118
3 118 119 120
3 131 117 120
3 131 116 117
3 131 129 130
3 129 131 127
3 126 131 120
3 122 124 120
3 122 123 124
3 126 120 124
3 128 129 127
3 126 127 131
3 124 125 126
3 122 120 121
4 132 134 135 133
4 134 136 137 135
4 136 138 139 137
4 138 140 141 139
4 140 142 143 141
4 142 144 145 143
4 144 146 147 145
4 146 148 149 147
4 148 150 151 149
4 150 152 153 151
4 152 154 155 153
4 154 156 157 155
4 156 158 159 157
4 158 160 161 159
4 160 162 163 161
4 162 164 165 163
3 169 168 167
3 166 169 167
3 170 169 166
3 180 166 181
3 166 180 175
3 179 177 180
3 170 166 175
3 172 171 175
3 175 173 172
3 173 175 174
3 178 177 179
3 177 176 175
3 180 177 175
3 175 171 170
3 185 183 184
3 182 183 185
3 186 182 185
3 196 197 182
3 182 191 196
3 195 196 193
3 186 191 182
3 188 191 187
3 191 188 189
3 189 190 191
3 194 195 193
3 193 191 192
3 196 191 193
3 191 186 187
0 0 0 255 250 250 250 255 0 0 0 255 255 255 255 255 0 0
