ply
format ascii 1.0
comment File exported by Rhinoceros Version 7.0
element vertex 151
property float x
property float y
property float z
property float nx
property float ny
property float nz
property uchar red
property uchar green
property uchar blue
element face 147
property list uchar uint vertex_indices
element material 1
property uchar ambient_red
property uchar ambient_green
property uchar ambient_blue
property uchar ambient_alpha
property uchar diffuse_red
property uchar diffuse_green
property uchar diffuse_blue
property uchar diffuse_alpha
property uchar emissive_red
property uchar emissive_green
property uchar emissive_blue
property uchar emissive_alpha
property uchar specular_red
property uchar specular_green
property uchar specular_blue
property uchar specular_alpha
property double shine
property double transparency
end_header
0.919352471828461 0.74211323261261 -0.5 0.5 0.8660254 0 250 250 250
0.919352471828461 0.74211323261261 -6.93889390390723E-18 0.5 0.8660254 0 250 250 250
0.711676239967346 0.862015187740326 -0.5 0.5 0.8660254 6.195186E-17 250 250 250
0.504000008106232 0.981917083263397 -0.5 0.5 0.8660254 0 250 250 250
0.919352471828461 0.74211323261261 -0.25 0.5 0.8660254 0 250 250 250
0.504000008106232 0.981917083263397 -0.25 0.5 0.8660254 0 250 250 250
0.504000008106232 0.981917083263397 -5.55111512312578E-17 0.5 0.8660254 0 250 250 250
0.711676239967346 0.862015187740326 -3.12250225675825E-17 0.5 0.8660254 0 250 250 250
0.504000008106232 0.981917083263397 -0.5 -1 8.860401E-16 0 250 250 250
0.504000008106232 0.981917083263397 0.739940166473389 -1 8.860401E-16 0 250 250 250
0.504000008106232 0.502309381961823 -0.5 -1 8.860401E-16 0 250 250 250
0.504000008106232 0.502309381961823 0.739940166473389 -1 8.860401E-16 0 250 250 250
0.504000008106232 0.981917083263397 -5.55111512312578E-17 -1 9.96795E-16 0 250 250 250
0.504000008106232 0.981917083263397 -0.25 -1 8.306626E-16 0 250 250 250
0.504000008106232 0.74211323261261 0.739940166473389 -1 8.860401E-16 0 250 250 250
0.504000008106232 0.502309381961823 -0.25 -1 8.306626E-16 0 250 250 250
0.504000008106232 0.502309381961823 -5.55111512312578E-17 -1 8.306626E-16 0 250 250 250
0.504000008106232 0.981917083263397 -0.5 0 0 -1 250 250 250
0.919352471828461 0.262505561113358 -0.5 0 0 -1 250 250 250
0.919352471828461 0.502309381961823 -0.5 0 0 -1 250 250 250
0.919352471828461 0.74211323261261 -0.5 0 0 -1 250 250 250
0.711676239967346 0.862015187740326 -0.5 0 0 -1 250 250 250
0.504000008106232 0.502309381961823 -0.5 0 0 -1 250 250 250
0.711676239967346 0.382407486438751 -0.5 0 0 -1 250 250 250
0.504000008106232 0.502309381961823 0.739940166473389 0 0 1 250 250 250
0.504000008106232 0.981917083263397 0.739940166473389 0 0 1 250 250 250
0.504000008106232 0.74211323261261 0.739940166473389 0 0 1 250 250 250
0.711676239967346 0.622211337089539 0.739940166473389 0 0 1 250 250 250
0.919352471828461 0.74211323261261 0.739940166473389 0 0 1 250 250 250
0.711676239967346 0.862015187740326 0.739940166473389 0 0 1 250 250 250
1.24600005149841 0.0739155039191246 0.0500000007450581 1 0 0 250 250 250
1.24600005149841 0.0739155039191246 1.5 1 0 0 250 250 250
1.24600005149841 0.914929807186127 0.0500000007450581 1 0 0 250 250 250
1.24600005149841 0.914929807186127 1.5 1 0 0 250 250 250
1.24600005149841 0.0739155039191246 0.774999976158142 1 0 0 250 250 250
1.24600005149841 0.494422644376755 0.0500000007450581 1 0 0 250 250 250
1.24600005149841 0.494422644376755 1.5 1 0 0 250 250 250
1.24600005149841 0.914929807186127 0.533333361148834 1 0 0 250 250 250
1.24600005149841 0.914929807186127 1.01666665077209 1 0 0 250 250 250
1.24600005149841 0.0739155039191246 1.5 0 0 1 250 250 250
1.24600005149841 0.914929807186127 1.5 2.220446E-16 0 1 250 250 250
0.504000008106232 0.502309381961823 1.5 0 0 1 250 250 250
0.875 0.288112461566925 1.5 0 0 1 250 250 250
1.24600005149841 0.494422644376755 1.5 0 0 1 250 250 250
0.933012723922729 0.734226524829865 1.5 0 0 1 250 250 250
0.919352412223816 0.74211323261261 1.5 0 0 1 250 250 250
0.871290028095245 0.494422644376755 1.5 2.220446E-16 0 1 250 250 250
0.871290028095245 0.70467621088028 1.5 0 0 1 250 250 250
1.05864500999451 0.494422644376755 1.5 2.220446E-16 0 1 250 250 250
1.05864500999451 0.70467621088028 1.5 0 0 1 250 250 250
0.964967489242554 0.70467621088028 1.5 0 0 1 250 250 250
0.918128728866577 0.70467621088028 1.5 0 0 1 250 250 250
1.05864500999451 0.599549412727356 1.5 0 0 1 250 250 250
0.871290028095245 0.599549412727356 1.5 0 0 1 250 250 250
0.964967489242554 0.494422644376755 1.5 2.220446E-16 0 1 250 250 250
0.964967489242554 0.599549412727356 1.5 0 0 1 250 250 250
0.964967489242554 0.730957925319672 1.5 0 0 1 250 250 250
0.941548109054565 0.70467621088028 1.5 0 0 1 250 250 250
0.941548109054565 0.730957925319672 1.5 0 0 1 250 250 250
0.964967489242554 0.65211284160614 1.5 0 0 1 250 250 250
0.871290028095245 0.65211284160614 1.5 0 0 1 250 250 250
0.918128728866577 0.599549412727356 1.5 0 0 1 250 250 250
0.918128728866577 0.65211284160614 1.5 0 0 1 250 250 250
0.777612507343292 0.494422644376755 1.5 2.220446E-16 0 1 250 250 250
0.777612507343292 0.599549412727356 1.5 0 0 1 250 250 250
1.05864500999451 0.757239639759064 1.5 2.220446E-16 0 1 250 250 250
1.01180624961853 0.70467621088028 1.5 0 0 1 250 250 250
1.01180624961853 0.757239639759064 1.5 2.220446E-16 0 1 250 250 250
0.919352471828461 0.262505561113358 -0.5 1 3.450632E-08 0 250 250 250
0.919352471828461 0.262505561113358 0.0500000007450581 1 3.450632E-08 0 250 250 250
0.919352471828461 0.502309381961823 0.0500000007450581 1 3.450632E-08 1.110223E-16 250 250 250
0.919352471828461 0.74211323261261 -0.5 1 3.450632E-08 0 250 250 250
0.919352471828461 0.74211323261261 0.0500000007450581 1 3.450632E-08 0 250 250 250
0.919352471828461 0.502309381961823 -0.5 1 3.450632E-08 0 250 250 250
0.919352471828461 0.74211323261261 -0.25 1 3.450632E-08 0 250 250 250
0.919352471828461 0.74211323261261 -6.93889390390723E-18 1 3.450632E-08 0 250 250 250
0.919352471828461 0.262505561113358 -0.224999994039536 1 3.450632E-08 0 250 250 250
0.919352471828461 0.622211337089539 -0.224999994039536 1 3.450632E-08 0 250 250 250
0.919352471828461 0.622211337089539 -0.0874999985098839 1 3.450632E-08 0 250 250 250
0.919352471828461 0.682162284851074 -0.224999994039536 1 3.450632E-08 0 250 250 250
0.919352471828461 0.682162284851074 -0.0874999985098839 1 3.450632E-08 0 250 250 250
0.504000008106232 0.502309381961823 -0.5 -0.5 -0.8660254 0 250 250 250
0.919352471828461 0.262505561113358 -0.5 -0.5 -0.8660254 0 250 250 250
0.919352471828461 0.262505561113358 0.0500000007450581 -0.5 -0.8660254 0 250 250 250
0.919352471828461 0.262505561113358 -0.224999994039536 -0.5 -0.8660254 0 250 250 250
0.504000008106232 0.502309381961823 -5.55111512312578E-17 -0.5 -0.8660254 0 250 250 250
0.504000008106232 0.502309381961823 -0.25 -0.5 -0.8660254 0 250 250 250
0.711676239967346 0.382407486438751 -0.5 -0.5 -0.8660254 0 250 250 250
0.711676239967346 0.382407486438751 0.025000000372529 -0.5 -0.8660254 0 250 250 250
0.504000008106232 0.502309381961823 -5.55111512312578E-17 -0.5 -0.8660254 0 250 250 250
0.504000008106232 0.502309381961823 1.5 -0.5 -0.8660254 0 250 250 250
1.24600005149841 0.0739155039191246 1.5 -0.5 -0.8660254 0 250 250 250
0.711676239967346 0.382407486438751 0.025000000372529 -0.5 -0.8660254 0 250 250 250
0.919352471828461 0.262505561113358 0.0500000007450581 -0.5 -0.8660254 0 250 250 250
0.875 0.288112461566925 1.5 -0.5 -0.8660254 0 250 250 250
1.24600005149841 0.0739155039191246 0.0500000007450581 -0.5 -0.8660254 0 250 250 250
1.24600005149841 0.0739155039191246 0.774999976158142 -0.5 -0.8660254 0 250 250 250
0.504000008106232 0.502309381961823 0.739940166473389 -0.5 -0.8660254 0 250 250 250
0.504000008106232 0.502309381961823 1.11997008323669 -0.5 -0.8660254 0 250 250 250
0.919352471828461 0.74211323261261 0.739940166473389 -0.5 0.8660254 0 250 250 250
0.504000008106232 0.502309381961823 0.739940166473389 -0.5 0.8660254 0 250 250 250
0.504000008106232 0.502309381961823 1.5 -0.5 0.8660254 0 250 250 250
0.711676239967346 0.622211337089539 0.739940166473389 -0.5 0.8660254 0 250 250 250
0.504000008106232 0.502309381961823 1.11997008323669 -0.5 0.8660254 0 250 250 250
0.919352412223816 0.74211323261261 1.5 -0.5 0.8660254 0 250 250 250
0.919352471828461 0.74211323261261 1.11997008323669 -0.5 0.8660254 0 250 250 250
1.24600005149841 0.0739155039191246 0.0500000007450581 0 0 -1 250 250 250
1.24600005149841 0.914929807186127 0.0500000007450581 0 0 -1 250 250 250
1.24600005149841 0.494422644376755 0.0500000007450581 0 0 -1 250 250 250
0.919352471828461 0.74211323261261 0.0500000007450581 0 0 -1 250 250 250
0.919352471828461 0.502309381961823 0.0500000007450581 0 0 -1 250 250 250
0.919352471828461 0.262505561113358 0.0500000007450581 0 0 -1 250 250 250
0.933012723922729 0.734226524829865 0.0500000007450581 0 0 -1 250 250 250
1.08267617225647 0.494422644376755 0.0500000007450581 1.387779E-17 0 -1 250 250 250
1.08267617225647 0.70467621088028 0.0500000007450581 0 0 -1 250 250 250
1.00101435184479 0.494422644376755 0.0500000007450581 1.387779E-17 0 -1 250 250 250
1.00101435184479 0.70467621088028 0.0500000007450581 0 0 -1 250 250 250
0.960183382034302 0.70467621088028 0.0500000007450581 0 0 -1 250 250 250
1.00101435184479 0.599549412727356 0.0500000007450581 0 0 -1 250 250 250
0.960183382034302 0.494422644376755 0.0500000007450581 1.387779E-17 0 -1 250 250 250
0.960183382034302 0.599549412727356 0.0500000007450581 0 0 -1 250 250 250
1.08267617225647 0.28416907787323 0.0500000007450581 0 0 -1 250 250 250
1.00101435184479 0.28416907787323 0.0500000007450581 0 0 -1 250 250 250
0.933012723922729 0.734226524829865 0.0500000007450581 -0.5 0.8660254 0 250 250 250
0.933012723922729 0.734226524829865 1.5 -0.5 0.8660254 0 250 250 250
1.24600005149841 0.914929807186127 0.0500000007450581 -0.5 0.8660254 0 250 250 250
1.24600005149841 0.914929807186127 0.533333361148834 -0.5 0.8660254 0 250 250 250
1.24600005149841 0.914929807186127 1.01666665077209 -0.5 0.8660254 0 250 250 250
1.24600005149841 0.914929807186127 1.5 -0.5 0.8660254 0 250 250 250
0.933012723922729 0.734226524829865 1.01666665077209 -0.5 0.8660254 0 250 250 250
0.933012723922729 0.734226524829865 0.533333361148834 -0.5 0.8660254 0 250 250 250
0.504000008106232 0.981917083263397 -5.55111512312578E-17 0.5 0.8660254 0 250 250 250
0.919352471828461 0.74211323261261 0.739940166473389 0.5 0.8660254 0 250 250 250
0.711676239967346 0.862015187740326 0.739940166473389 0.5 0.8660254 0 250 250 250
0.504000008106232 0.981917083263397 0.739940166473389 0.5 0.8660254 0 250 250 250
0.933012723922729 0.734226524829865 1.5 0.5 0.8660254 0 250 250 250
0.919352412223816 0.74211323261261 1.5 0.5 0.8660254 0 250 250 250
0.919352471828461 0.74211323261261 1.11997008323669 0.5 0.8660254 0 250 250 250
0.919352471828461 0.74211323261261 0.0500000007450581 0.5 0.8660254 0 250 250 250
0.933012723922729 0.734226524829865 0.0500000007450581 0.5 0.8660254 0 250 250 250
0.825759530067444 0.796149134635925 0.375 0.5 0.8660254 0 250 250 250
0.879386126995087 0.765187799930573 0.375 0.5 0.8660254 0 250 250 250
0.825759530067444 0.796149134635925 0.1875 0.5 0.8660254 0 250 250 250
0.879386126995087 0.765187799930573 0.1875 0.5 0.8660254 0 250 250 250
0.906199395656586 0.749707162380219 0.1875 0.5 0.8660254 0 250 250 250
0.879386126995087 0.765187799930573 0.09375 0.5 0.8660254 0 250 250 250
0.906199395656586 0.749707162380219 0.09375 0.5 0.8660254 0 250 250 250
0.919352471828461 0.74211323261261 -6.93889390390723E-18 0.5 0.8660254 0 250 250 250
0.933012723922729 0.734226524829865 0.533333361148834 0.5 0.8660254 0 250 250 250
0.933012723922729 0.734226524829865 1.01666665077209 0.5 0.8660254 0 250 250 250
0.711676239967346 0.862015187740326 -3.12250225675825E-17 0.5 0.8660254 0 250 250 250
3 4 0 2
3 4 7 1
3 7 4 2
3 2 5 7
3 5 6 7
3 3 5 2
4 13 8 10 15
3 14 9 12
4 12 13 15 16
3 11 14 16
3 16 14 12
3 17 21 22
3 23 22 21
3 19 18 23
3 19 21 20
3 23 21 19
3 27 26 24
3 29 25 26
3 29 27 28
3 26 27 29
3 34 30 35
3 34 36 31
3 36 34 35
3 37 38 35
3 33 36 38
3 38 36 35
3 32 37 35
4 56 58 57 50
4 65 67 66 49
3 66 50 59
3 59 55 52
3 52 49 66
3 66 59 52
3 57 51 62
3 59 50 57
3 62 59 57
4 51 47 60 62
4 62 60 53 61
4 59 62 61 55
3 61 53 46
3 54 55 61
3 46 54 61
4 52 55 54 48
4 53 64 63 46
3 64 41 63
3 42 63 41
3 47 41 64
3 63 42 46
3 60 64 53
3 45 47 51
3 64 60 47
3 45 51 44
3 57 44 51
3 58 44 57
3 44 56 67
3 41 47 45
3 54 46 42
3 48 54 42
3 52 48 43
3 39 43 48
3 48 42 39
3 43 49 52
3 66 56 50
3 67 56 66
3 67 40 44
3 67 65 40
3 49 40 65
3 40 49 43
3 56 44 58
4 80 78 77 79
3 76 68 73
3 70 76 73
3 69 76 70
3 77 70 73
3 78 70 77
4 73 71 79 77
3 74 79 71
3 80 79 74
3 72 78 80
3 80 75 72
3 75 80 74
3 70 78 72
3 86 81 87
3 86 88 85
3 88 86 87
4 88 87 82 84
3 84 83 88
3 97 89 92
3 97 94 98
3 98 94 90
3 92 93 97
3 96 93 95
3 91 94 96
3 93 96 94
3 97 93 94
3 102 105 99
3 103 104 105
3 103 102 100
3 103 101 104
3 102 103 105
4 116 118 120 117
4 118 115 119 120
3 118 113 115
3 114 118 116
3 113 118 114
4 113 121 122 115
3 119 111 110
3 111 119 122
3 122 106 111
3 120 119 110
3 120 109 112
3 112 117 120
3 120 110 109
3 116 117 112
3 122 119 115
3 106 121 108
3 113 108 121
3 106 122 121
3 107 114 116
3 114 107 108
3 114 108 113
3 112 107 116
4 130 126 125 123
4 124 128 127 129
4 129 127 126 130
4 141 143 142 140
4 144 146 145 143
4 150 131 134 133
3 145 142 143
3 150 142 145
3 145 146 147
3 147 150 145
3 142 150 140
3 140 150 133
3 143 141 144
3 132 140 133
3 141 140 132
3 146 139 138
3 147 146 138
3 144 148 139
3 139 146 144
3 141 132 148
3 135 137 136
3 137 135 149
3 148 132 149
3 132 137 149
3 141 148 144
0 0 0 255 250 250 250 255 0 0 0 255 255 255 255 255 0 0
