ply
format ascii 1.0
comment File exported by Rhinoceros Version 7.0
element vertex 28
property float x
property float y
property float z
property float nx
property float ny
property float nz
property uchar red
property uchar green
property uchar blue
element face 52
property list uchar uint vertex_indices
element material 1
property uchar ambient_red
property uchar ambient_green
property uchar ambient_blue
property uchar ambient_alpha
property uchar diffuse_red
property uchar diffuse_green
property uchar diffuse_blue
property uchar diffuse_alpha
property uchar emissive_red
property uchar emissive_green
property uchar emissive_blue
property uchar emissive_alpha
property uchar specular_red
property uchar specular_green
property uchar specular_blue
property uchar specular_alpha
property double shine
property double transparency
end_header
0.504000008106232 1.24600005149841 1.5 0 0.7071068 0.7071068 230 230 230
0.504000008106232 0.502309381961823 1.5 -0.7071068 0 0.7071068 230 230 230
1.24600005149841 0.0739155039191246 0.00999999977648258 0.5020683 -0.4300196 -0.7503403 230 230 230
1.24600005149841 1.24600005149841 0.00999999977648258 0.5 0.7071068 -0.5 230 230 230
1.24600005149841 1.24600005149841 1.5 0.7071068 0 0.7071068 230 230 230
0.504000008106232 1.24600005149841 0.00999999977648258 -0.7071068 0.5 -0.5 230 230 230
0.504000008106232 0.502309381961823 0.00999999977648258 -0.7336569 -0.526354 -0.4297662 230 230 230
1.24600005149841 0.0739155039191246 1.5 0.1821432 -0.7616392 0.6218758 230 230 230
0.807620525360107 0.806621670722961 1.5 0 0 1 230 230 230
0.504999995231628 0.503311634063721 1.5 0 0 1 229 229 229
0.919352471828461 0.74211323261261 1.5 0 0 1 230 230 230
0.919352471828461 0.263660252094269 1.5 0 0 1 230 230 230
0.504999995231628 0.502886772155762 1.5 0 0 1 229 229 229
0.504999995231628 0.981339752674103 1.5 0 0 1 230 230 230
0.919352471828461 0.74211323261261 0.00999999977648258 0.7336569 0.526354 -0.4297662 245 245 245
0.919352471828461 0.385665774345398 0.00999999977648258 0.7071068 -3.139345E-12 -0.7071068 240 240 240
0.919352471828461 0.263660252094269 0.00999999977648258 0.1821432 -0.7616392 -0.6218758 245 245 245
0.813692569732666 0.803116023540497 0.00999999977648258 0.3535534 0.6123725 -0.7071068 240 240 240
0.610659897327423 0.441884011030197 0.00999999977648258 -0.3535534 -0.6123725 -0.7071068 240 240 240
0.504999995231628 0.502886772155762 0.00999999977648258 -0.8226644 -0.3721885 -0.4297662 245 245 245
0.504999995231628 0.981339752674103 0.00999999977648258 -0.5685273 0.5385603 -0.6218758 245 245 245
0.504999995231628 0.859334230422974 0.00999999977648258 -0.7071068 3.138689E-12 -0.7071068 240 240 240
0.807620525360107 0.806621670722961 0.00999999977648258 0.3535534 0.6123725 -0.7071068 240 240 240
0.504999995231628 0.502886772155762 -0.5 -0.7200738 -0.4157348 -0.5555702 250 250 250
0.919352471828461 0.263660252094269 -0.5 0.5 -0.8660254 0 250 250 250
0.919352471828461 0.74211323261261 -0.5 0.6123725 0.3535534 -0.7071068 250 250 250
0.504999995231628 0.981339752674103 -0.5 -0.3535534 0.6123725 -0.7071068 250 250 250
0.504999995231628 0.503311634063721 0.00999999977648258 -0.7071068 3.138689E-12 -0.7071068 239 239 239
3 14 25 17
3 15 16 24
3 18 19 23
3 20 26 21
3 22 26 20
3 26 22 25
3 17 25 22
3 15 25 14
3 25 15 24
3 18 24 16
3 24 18 23
3 27 23 19
3 26 23 21
3 27 21 23
3 23 25 24
3 25 23 26
3 12 11 10
3 7 4 10
3 8 10 4
3 1 7 11
3 10 11 7
3 10 9 12
3 9 10 8
3 11 12 1
3 9 1 12
3 0 1 13
3 9 13 1
3 9 8 13
3 4 0 8
3 13 8 0
3 16 15 2
3 3 2 14
3 2 15 14
3 14 17 3
3 17 22 3
3 2 6 16
3 19 18 6
3 6 18 16
3 19 6 27
3 21 5 20
3 5 21 6
3 21 27 6
3 20 5 22
3 5 3 22
3 2 4 7
3 6 7 1
3 5 1 0
3 3 0 4
3 2 3 4
3 6 2 7
3 5 6 1
3 3 5 0
0 0 0 255 250 250 250 255 0 0 0 255 255 255 255 255 0 0
