ply
format ascii 1.0
comment File exported by Rhinoceros Version 7.0
element vertex 145
property float x
property float y
property float z
property float nx
property float ny
property float nz
property uchar red
property uchar green
property uchar blue
element face 130
property list uchar uint vertex_indices
element material 1
property uchar ambient_red
property uchar ambient_green
property uchar ambient_blue
property uchar ambient_alpha
property uchar diffuse_red
property uchar diffuse_green
property uchar diffuse_blue
property uchar diffuse_alpha
property uchar emissive_red
property uchar emissive_green
property uchar emissive_blue
property uchar emissive_alpha
property uchar specular_red
property uchar specular_green
property uchar specular_blue
property uchar specular_alpha
property double shine
property double transparency
end_header
0.0846475660800934 0.255577355623245 -0.5 -0.5 -0.8660254 0 250 250 250
0.0846475660800934 0.255577355623245 -5.55111512312578E-17 -0.5 -0.8660254 0 250 250 250
0.500000059604645 0.0157735086977482 -0.5 -0.5 -0.8660254 0 250 250 250
0.292323797941208 0.135675430297852 -0.5 -0.5 -0.8660254 0 250 250 250
0.500000059604645 0.0157735086977482 -0.25 -0.5 -0.8660254 0 250 250 250
0.0846475660800934 0.255577355623245 -0.25 -0.5 -0.8660254 0 250 250 250
0.500000059604645 0.0157735086977482 -6.93889390390723E-18 -0.5 -0.8660254 0 250 250 250
0.292323797941208 0.135675430297852 -3.12250225675825E-17 -0.5 -0.8660254 0 250 250 250
0.5 0.495381206274033 -0.5 -0.5 0.8660254 0 250 250 250
0.5 0.495381206274033 0.739940166473389 -0.5 0.8660254 0 250 250 250
0.292323797941208 0.375479280948639 0.739940166473389 -0.5 0.8660254 2.750648E-17 250 250 250
0.0846475660800934 0.255577355623245 -0.5 -0.5 0.8660254 0 250 250 250
0.0846475660800934 0.255577355623245 0.739940166473389 -0.5 0.8660254 0 250 250 250
0.0846475660800934 0.255577355623245 -0.25 -0.5 0.8660254 0 250 250 250
0.0846475660800934 0.255577355623245 -5.55111512312578E-17 -0.5 0.8660254 0 250 250 250
0.5 0.495381206274033 -5.55111512312578E-17 -0.5 0.8660254 0 250 250 250
0.5 0.495381206274033 -0.25 -0.5 0.8660254 0 250 250 250
0.0846475660800934 0.255577355623245 -0.5 0 0 -1 250 250 250
0.915352463722229 0.255577355623245 -0.5 0 0 -1 250 250 250
0.292323797941208 0.135675430297852 -0.5 0 0 -1 250 250 250
0.500000059604645 0.0157735086977482 -0.5 0 0 -1 250 250 250
0.707676231861115 0.135675430297852 -0.5 0 0 -1 250 250 250
0.707676231861115 0.375479280948639 -0.5 0 0 -1 250 250 250
0.5 0.495381206274033 -0.5 0 0 -1 250 250 250
0.0846475660800934 0.255577355623245 0.739940166473389 0 0 1 250 250 250
0.500000059604645 0.0157735086977482 0.739940166473389 0 0 1 250 250 250
0.5 0.495381206274033 0.739940166473389 0 0 1 250 250 250
0.292323797941208 0.375479280948639 0.739940166473389 0 0 1 250 250 250
0.5 0.255577355623245 0.739940166473389 0 0 1 250 250 250
0.292323797941208 0.135675430297852 0.739940166473389 0 0 1 250 250 250
0.513660252094269 -0.24600000679493 0.0500000007450581 0 -1 0 250 250 250
0.513660252094269 -0.24600000679493 1.5 0 -1 0 250 250 250
1.24600005149841 -0.24600000679493 0.0500000007450581 0 -1 0 250 250 250
1.24600005149841 -0.24600000679493 1.5 0 -1 0 250 250 250
1.24600005149841 -0.24600000679493 0.774999976158142 0 -1 0 250 250 250
0.513660252094269 -0.24600000679493 0.774999976158142 0 -1 0 250 250 250
0.879830121994019 -0.24600000679493 0.0500000007450581 0 -1 0 250 250 250
0.879830121994019 -0.24600000679493 1.5 0 -1 0 250 250 250
1.24600005149841 -0.24600000679493 0.0500000007450581 1 0 0 250 250 250
1.24600005149841 -0.24600000679493 1.5 1 0 0 250 250 250
1.24600005149841 0.064677894115448 0.0500000007450581 1 0 0 250 250 250
1.24600005149841 0.064677894115448 1.5 1 0 0 250 250 250
1.24600005149841 -0.24600000679493 0.774999976158142 1 0 0 250 250 250
1.24600005149841 0.064677894115448 0.774999976158142 1 0 0 250 250 250
0.5 0.495381206274033 1.5 0 0 1 250 250 250
1.24600005149841 -0.24600000679493 1.5 0 0 1 250 250 250
1.24600005149841 0.064677894115448 1.5 0 0 1 250 250 250
0.873000025749207 0.280029535293579 1.5 0 0 1 250 250 250
0.5 0.0157735031098127 1.5 0 0 1 250 250 250
0.513660252094269 0.00788675155490637 1.5 0 0 1 250 250 250
0.513660252094269 -0.24600000679493 1.5 0 0 1 250 250 250
0.873000025749207 0.124690599739552 1.5 0 0 1 250 250 250
0.873000025749207 -0.0606546998023987 1.5 0 0 1 250 250 250
0.686500012874603 0.124690599739552 1.5 0 0 1 250 250 250
0.686500012874603 -0.0606546998023987 1.5 0 0 1 250 250 250
0.686500012874603 0.0320179499685764 1.5 -1.110223E-16 0 1 250 250 250
0.593249976634979 0.124690599739552 1.5 0 0 1 250 250 250
0.593249976634979 -0.0606546998023987 1.5 0 0 1 250 250 250
0.593249976634979 0.0320179499685764 1.5 -1.110223E-16 0 1 250 250 250
0.593249976634979 -0.0143183758482337 1.5 0 0 1 250 250 250
0.546625018119812 0.0320179499685764 1.5 -1.110223E-16 0 1 250 250 250
0.546625018119812 -0.0606546998023987 1.5 0 0 1 250 250 250
0.546625018119812 -0.0143183758482337 1.5 0 0 1 250 250 250
0.686500012874603 -0.153327345848083 1.5 1.110223E-16 0 1 250 250 250
0.593249976634979 -0.153327345848083 1.5 1.110223E-16 0 1 250 250 250
0.879830121994019 -0.24600000679493 1.5 0 0 1 250 250 250
0.500000059604645 0.0157735086977482 -0.5 0.5 -0.8660254 0 250 250 250
0.500000059604645 0.0157735086977482 0.0500000007450581 0.5 -0.8660254 0 250 250 250
0.915352463722229 0.255577355623245 -0.5 0.5 -0.8660254 0 250 250 250
0.915352463722229 0.255577355623245 0.0500000007450581 0.5 -0.8660254 0 250 250 250
0.500000059604645 0.0157735086977482 -6.93889390390723E-18 0.5 -0.8660254 0 250 250 250
0.500000059604645 0.0157735086977482 -0.25 0.5 -0.8660254 0 250 250 250
0.707676231861115 0.135675430297852 -0.5 0.5 -0.8660254 0 250 250 250
0.915352463722229 0.255577355623245 -0.224999994039536 0.5 -0.8660254 0 250 250 250
0.707676231861115 0.135675430297852 0.0500000007450581 0.5 -0.8660254 0 250 250 250
0.707676231861115 0.135675430297852 -0.224999994039536 0.5 -0.8660254 0 250 250 250
0.707676231861115 0.135675430297852 -0.0874999985098839 0.5 -0.8660254 0 250 250 250
0.60383814573288 0.0757244676351547 -0.224999994039536 0.5 -0.8660254 0 250 250 250
0.60383814573288 0.0757244676351547 -0.0874999985098839 0.5 -0.8660254 0 250 250 250
0.915352463722229 0.255577355623245 -0.5 0.5 0.8660254 0 250 250 250
0.915352463722229 0.255577355623245 0.0500000007450581 0.5 0.8660254 0 250 250 250
0.707676231861115 0.375479280948639 -0.5 0.5 0.8660254 4.807407E-17 250 250 250
0.5 0.495381206274033 -0.5 0.5 0.8660254 0 250 250 250
0.915352463722229 0.255577355623245 -0.224999994039536 0.5 0.8660254 0 250 250 250
0.5 0.495381206274033 -0.25 0.5 0.8660254 0 250 250 250
0.5 0.495381206274033 -5.55111512312578E-17 0.5 0.8660254 0 250 250 250
0.707676231861115 0.375479280948639 0.025000000372529 0.5 0.8660254 0 250 250 250
1.24600005149841 0.064677894115448 1.5 0.5 0.8660254 0 250 250 250
0.5 0.495381206274033 -5.55111512312578E-17 0.5 0.8660254 0 250 250 250
0.5 0.495381206274033 1.5 0.5 0.8660254 0 250 250 250
1.24600005149841 0.064677894115448 0.774999976158142 0.5 0.8660254 0 250 250 250
1.24600005149841 0.064677894115448 0.0500000007450581 0.5 0.8660254 0 250 250 250
0.915352463722229 0.255577355623245 0.0500000007450581 0.5 0.8660254 0 250 250 250
0.873000025749207 0.280029535293579 1.5 0.5 0.8660254 0 250 250 250
0.5 0.495381206274033 0.739940166473389 0.5 0.8660254 0 250 250 250
0.707676231861115 0.375479280948639 0.025000000372529 0.5 0.8660254 0 250 250 250
0.5 0.495381206274033 1.11997008323669 0.5 0.8660254 0 250 250 250
0.5 0.495381206274033 0.739940166473389 -1 -5.551115E-17 0 250 250 250
0.5 0.495381206274033 1.5 -1 0 0 250 250 250
0.5 0.0157735031098127 1.5 -1 0 0 250 250 250
0.5 0.255577355623245 0.739940166473389 -1 0 0 250 250 250
0.5 0.495381206274033 1.11997008323669 -1 0 0 250 250 250
0.500000059604645 0.0157735086977482 0.739940166473389 -1 0 0 250 250 250
0.5 0.015773506835103 1.11997008323669 -1 0 0 250 250 250
1.24600005149841 -0.24600000679493 0.0500000007450581 0 0 -1 250 250 250
1.24600005149841 0.064677894115448 0.0500000007450581 0 0 -1 250 250 250
0.915352463722229 0.255577355623245 0.0500000007450581 0 0 -1 250 250 250
0.707676231861115 0.135675430297852 0.0500000007450581 0 0 -1 250 250 250
0.513660252094269 0.00788675155490637 0.0500000007450581 0 0 -1 250 250 250
0.513660252094269 -0.24600000679493 0.0500000007450581 0 0 -1 250 250 250
0.500000059604645 0.0157735086977482 0.0500000007450581 0 0 -1 250 250 250
0.873000025749207 0.00729655707255006 0.0500000007450581 0 0 -1 250 250 250
0.686500012874603 0.00729655707255006 0.0500000007450581 0 0 -1 250 250 250
0.593249976634979 0.00729655707255006 0.0500000007450581 0 0 -1 250 250 250
0.873000025749207 -0.119351722300053 0.0500000007450581 3.469447E-18 0 -1 250 250 250
0.686500012874603 -0.119351722300053 0.0500000007450581 3.469447E-18 0 -1 250 250 250
0.686500012874603 -0.0560275837779045 0.0500000007450581 0 0 -1 250 250 250
0.593249976634979 -0.119351722300053 0.0500000007450581 3.469447E-18 0 -1 250 250 250
0.593249976634979 -0.0560275837779045 0.0500000007450581 0 0 -1 250 250 250
0.879830121994019 -0.24600000679493 0.0500000007450581 0 0 -1 250 250 250
0.513660252094269 -0.24600000679493 0.0500000007450581 -1 8.233187E-17 0 250 250 250
0.513660252094269 0.00788675155490637 1.5 -1 0 0 250 250 250
0.513660252094269 -0.24600000679493 1.5 -1 0 0 250 250 250
0.513660252094269 -0.24600000679493 0.774999976158142 -1 -9.409357E-17 0 250 250 250
0.513660252094269 0.00788675155490637 0.774999976158142 -1 0 0 250 250 250
0.513660252094269 0.00788675155490637 0.0500000007450581 -1 8.821272E-17 0 250 250 250
0.513660252094269 0.00788675155490637 1.5 -0.5 -0.8660254 0 250 250 250
0.0846475660800934 0.255577355623245 0.739940166473389 -0.5 -0.8660254 0 250 250 250
0.292323797941208 0.135675430297852 0.739940166473389 -0.5 -0.8660254 0 250 250 250
0.500000059604645 0.0157735086977482 0.739940166473389 -0.5 -0.8660254 0 250 250 250
0.5 0.0157735031098127 1.5 -0.5 -0.8660254 0 250 250 250
0.5 0.015773506835103 1.11997008323669 -0.5 -0.8660254 0 250 250 250
0.513660252094269 0.00788675155490637 0.0500000007450581 -0.5 -0.8660254 0 250 250 250
0.500000059604645 0.0157735086977482 0.0500000007450581 -0.5 -0.8660254 0 250 250 250
0.406407088041306 0.0698093995451927 0.375 -0.5 -0.8660254 0 250 250 250
0.406407088041306 0.0698093995451927 0.1875 -0.5 -0.8660254 0 250 250 250
0.460033655166626 0.0388480760157108 0.375 -0.5 -0.8660254 0 250 250 250
0.460033655166626 0.0388480760157108 0.1875 -0.5 -0.8660254 0 250 250 250
0.460033655166626 0.0388480760157108 0.09375 -0.5 -0.8660254 0 250 250 250
0.486846953630447 0.0233674142509699 0.1875 -0.5 -0.8660254 0 250 250 250
0.486846953630447 0.0233674142509699 0.09375 -0.5 -0.8660254 0 250 250 250
0.500000059604645 0.0157735086977482 -6.93889390390723E-18 -0.5 -0.8660254 0 250 250 250
0.0846475660800934 0.255577355623245 -5.55111512312578E-17 -0.5 -0.8660254 0 250 250 250
0.513660252094269 0.00788675155490637 0.774999976158142 -0.5 -0.8660254 0 250 250 250
0.292323797941208 0.135675430297852 -3.12250225675825E-17 -0.5 -0.8660254 0 250 250 250
3 5 0 3
3 5 7 1
3 7 5 3
3 3 4 7
3 4 6 7
3 2 4 3
3 10 16 8
3 10 9 15
3 15 16 10
3 10 11 13
3 12 10 14
3 13 14 10
3 8 11 10
3 23 19 17
3 21 19 23
3 23 22 21
3 21 22 18
3 20 19 21
3 27 24 29
3 28 27 29
3 26 27 28
3 25 28 29
3 35 30 36
3 35 37 31
4 34 35 36 32
4 35 34 33 37
4 42 38 40 43
4 39 42 43 41
3 55 54 52
3 51 53 55
3 52 51 55
4 53 56 58 55
4 58 60 62 59
4 59 62 61 57
3 59 57 54
3 55 58 59
3 54 55 59
4 54 57 64 63
3 49 50 61
3 64 61 50
3 64 57 61
3 64 50 63
3 62 49 61
3 48 56 44
3 49 62 60
3 60 56 48
3 48 49 60
3 58 56 60
3 52 54 63
3 45 52 65
3 63 65 52
3 46 52 45
3 65 63 50
3 44 53 47
3 47 51 46
3 53 51 47
3 52 46 51
3 56 53 44
4 76 78 77 75
3 71 66 77
3 72 77 66
3 78 71 77
3 67 70 78
3 71 78 70
3 74 67 78
4 75 72 68 73
3 77 72 75
3 78 76 74
3 69 74 76
3 76 73 69
3 73 76 75
3 83 79 81
3 83 86 80
3 86 83 81
3 81 84 86
3 84 85 86
3 82 84 81
3 90 91 92
3 87 90 93
3 92 93 90
3 93 92 94
3 94 95 88
3 94 96 93
3 96 89 93
3 94 92 95
3 100 101 97
4 98 101 103 99
3 103 100 102
3 100 103 101
3 116 114 115
3 111 116 112
3 114 116 111
4 112 116 118 113
4 116 115 117 118
3 117 115 109
4 109 115 114 119
3 109 108 117
3 113 108 110
3 108 113 118
3 108 118 117
3 107 113 110
3 114 104 119
4 104 114 111 105
3 106 111 107
3 112 107 111
3 111 106 105
3 113 107 112
4 123 124 125 120
4 122 121 124 123
4 134 135 137 136
4 137 138 140 139
3 132 140 133
3 141 133 140
3 140 138 141
3 132 143 139
3 131 143 126
3 126 130 131
3 143 131 129
3 139 143 129
3 132 139 140
3 138 135 144
3 137 135 138
4 142 144 128 127
3 144 141 138
3 136 137 139
3 135 134 144
3 134 128 144
3 134 129 128
3 136 129 134
3 129 136 139
0 0 0 255 250 250 250 255 0 0 0 255 255 255 255 255 0 0
