ply
format ascii 1.0
comment File exported by Rhinoceros Version 7.0
element vertex 146
property float x
property float y
property float z
property float nx
property float ny
property float nz
property uchar red
property uchar green
property uchar blue
element face 137
property list uchar uint vertex_indices
element material 1
property uchar ambient_red
property uchar ambient_green
property uchar ambient_blue
property uchar ambient_alpha
property uchar diffuse_red
property uchar diffuse_green
property uchar diffuse_blue
property uchar diffuse_alpha
property uchar emissive_red
property uchar emissive_green
property uchar emissive_blue
property uchar emissive_alpha
property uchar specular_red
property uchar specular_green
property uchar specular_blue
property uchar specular_alpha
property double shine
property double transparency
end_header
0.919352471828461 0.262505561113358 -0.5 1 3.450632E-08 0 250 250 250
0.919352471828461 0.262505561113358 -5.55111512312578E-17 1 3.450632E-08 0 250 250 250
0.919352471828461 0.502309381961823 -3.12250225675825E-17 1 3.450632E-08 1.915486E-24 250 250 250
0.919352471828461 0.74211323261261 -0.5 1 3.450632E-08 0 250 250 250
0.919352471828461 0.502309381961823 -0.5 1 3.450632E-08 0 250 250 250
0.919352471828461 0.74211323261261 -0.25 1 3.450632E-08 0 250 250 250
0.919352471828461 0.262505561113358 -0.25 1 3.450632E-08 0 250 250 250
0.919352471828461 0.74211323261261 -6.93889390390723E-18 1 3.450632E-08 0 250 250 250
0.504000008106232 0.502309381961823 -0.5 -0.5 -0.8660254 0 250 250 250
0.504000008106232 0.502309381961823 0.739940166473389 -0.5 -0.8660254 0 250 250 250
0.711676239967346 0.382407486438751 0.739940166473389 -0.5 -0.8660254 -3.977409E-17 250 250 250
0.919352471828461 0.262505561113358 -0.5 -0.5 -0.8660254 0 250 250 250
0.919352471828461 0.262505561113358 0.739940166473389 -0.5 -0.8660254 0 250 250 250
0.919352471828461 0.262505561113358 -0.25 -0.5 -0.8660254 0 250 250 250
0.919352471828461 0.262505561113358 -5.55111512312578E-17 -0.5 -0.8660254 0 250 250 250
0.504000008106232 0.502309381961823 0 -0.5 -0.8660254 0 250 250 250
0.504000008106232 0.502309381961823 -0.25 -0.5 -0.8660254 0 250 250 250
0.504000008106232 0.981917083263397 -0.5 0 0 -1 250 250 250
0.919352471828461 0.262505561113358 -0.5 0 0 -1 250 250 250
0.919352471828461 0.502309381961823 -0.5 0 0 -1 250 250 250
0.919352471828461 0.74211323261261 -0.5 0 0 -1 250 250 250
0.711676239967346 0.862015187740326 -0.5 0 0 -1 250 250 250
0.504000008106232 0.74211323261261 -0.5 0 0 -1 250 250 250
0.504000008106232 0.502309381961823 -0.5 0 0 -1 250 250 250
0.919352471828461 0.262505561113358 0.739940166473389 0 0 1 250 250 250
0.919352471828461 0.74211323261261 0.739940166473389 0 0 1 250 250 250
0.504000008106232 0.502309381961823 0.739940166473389 0 0 1 250 250 250
0.711676239967346 0.382407486438751 0.739940166473389 0 0 1 250 250 250
0.711676239967346 0.622211337089539 0.739940166473389 0 0 1 250 250 250
0.919352471828461 0.502309381961823 0.739940166473389 0 0 1 250 250 250
1.24600005149841 1.24600005149841 0.0500000007450581 0 1 0 250 250 250
1.24600005149841 1.24600005149841 1.5 0 1 0 250 250 250
0.504000008106232 1.24600005149841 0.0500000007450581 0 1 0 250 250 250
0.504000008106232 1.24600005149841 1.5 0 1 0 250 250 250
0.875 1.24600005149841 0.0500000007450581 0 1 0 250 250 250
0.504000008106232 1.24600005149841 0.774999976158142 0 1 0 250 250 250
1.24600005149841 1.24600005149841 0.774999976158142 0 1 0 250 250 250
0.875 1.24600005149841 1.5 0 1 0 250 250 250
0.504000008106232 1.24600005149841 1.5 -1 0 0 250 250 250
0.504000008106232 0.502309381961823 0 -1 0 0 250 250 250
0.504000008106232 0.502309381961823 1.5 -1 0 0 250 250 250
0.504000008106232 1.24600005149841 0.774999976158142 -1 0 0 250 250 250
0.504000008106232 1.24600005149841 0.0500000007450581 -1 0 0 250 250 250
0.504000008106232 0.981917083263397 0.0500000007450581 -1 0 0 250 250 250
0.504000008106232 0.874154686927795 1.5 -1 0 0 250 250 250
0.504000008106232 0.502309381961823 0.739940166473389 -1 0 0 250 250 250
0.504000008106232 0.74211323261261 0.025000000372529 -1 0 0 250 250 250
0.504000008106232 0.502309381961823 1.11997008323669 -1 0 0 250 250 250
1.24600005149841 0.946476817131042 0.0500000007450581 1 0 0 250 250 250
1.24600005149841 0.946476817131042 1.5 1 0 0 250 250 250
1.24600005149841 1.24600005149841 0.0500000007450581 1 0 0 250 250 250
1.24600005149841 1.24600005149841 1.5 1 0 0 250 250 250
1.24600005149841 1.24600005149841 0.774999976158142 1 0 0 250 250 250
1.24600005149841 0.946476817131042 0.774999976158142 1 0 0 250 250 250
0.504000008106232 0.502309381961823 1.5 0 0 1 250 250 250
0.504000008106232 1.24600005149841 1.5 0 0 1 250 250 250
1.24600005149841 1.24600005149841 1.5 0 0 1 250 250 250
0.875 1.24600005149841 1.5 0 0 1 250 250 250
0.504000008106232 0.874154686927795 1.5 0 0 1 250 250 250
0.919352471828461 0.742113292217255 1.5 0 0 1 250 250 250
0.919352471828461 0.75788676738739 1.5 0 0 1 250 250 250
1.24600005149841 0.946476817131042 1.5 0 0 1 250 250 250
0.875 0.874154686927795 1.5 2.220446E-16 0 1 250 250 250
1.06050002574921 0.874154686927795 1.5 2.220446E-16 0 1 250 250 250
0.967750012874603 0.874154686927795 1.5 2.220446E-16 0 1 250 250 250
0.875 0.781193375587463 1.5 2.220446E-16 0 1 250 250 250
0.875 1.06007730960846 1.5 0 0 1 250 250 250
1.06050002574921 1.06007730960846 1.5 0 0 1 250 250 250
0.689499974250793 0.874154686927795 1.5 2.220446E-16 0 1 250 250 250
0.689499974250793 0.688232064247131 1.5 2.220446E-16 0 1 250 250 250
0.782249987125397 0.874154686927795 1.5 2.220446E-16 0 1 250 250 250
0.689499974250793 0.781193375587463 1.5 2.220446E-16 0 1 250 250 250
0.782249987125397 0.688232064247131 1.5 2.220446E-16 0 1 250 250 250
0.782249987125397 0.781193375587463 1.5 2.220446E-16 0 1 250 250 250
0.689499974250793 1.06007730960846 1.5 0 0 1 250 250 250
0.919352471828461 0.74211323261261 -0.5 0.5 0.8660254 0 250 250 250
0.919352471828461 0.74211323261261 0.0500000007450581 0.5 0.8660254 0 250 250 250
0.711676239967346 0.862015187740326 -0.5 0.5 0.8660254 -1.516593E-16 250 250 250
0.504000008106232 0.981917083263397 -0.5 0.5 0.8660254 0 250 250 250
0.504000008106232 0.981917083263397 0.0500000007450581 0.5 0.8660254 0 250 250 250
0.919352471828461 0.74211323261261 -6.93889390390723E-18 0.5 0.8660254 0 250 250 250
0.919352471828461 0.74211323261261 -0.25 0.5 0.8660254 0 250 250 250
0.504000008106232 0.981917083263397 -0.224999994039536 0.5 0.8660254 0 250 250 250
0.711676239967346 0.862015187740326 0.0500000007450581 0.5 0.8660254 0 250 250 250
0.815514326095581 0.80206423997879 -0.224999994039536 0.5 0.8660254 0 250 250 250
0.815514326095581 0.80206423997879 -0.0874999985098839 0.5 0.8660254 0 250 250 250
0.867433428764343 0.772088766098022 -0.224999994039536 0.5 0.8660254 0 250 250 250
0.867433428764343 0.772088766098022 -0.0874999985098839 0.5 0.8660254 0 250 250 250
0.504000008106232 0.981917083263397 -0.5 -1 0 0 250 250 250
0.504000008106232 0.981917083263397 0.0500000007450581 -1 0 0 250 250 250
0.504000008106232 0.502309381961823 -0.5 -1 0 0 250 250 250
0.504000008106232 0.981917083263397 -0.224999994039536 -1 0 0 250 250 250
0.504000008106232 0.74211323261261 -0.5 -1 0 0 250 250 250
0.504000008106232 0.502309381961823 -0.25 -1 0 0 250 250 250
0.504000008106232 0.502309381961823 0 -1 0 0 250 250 250
0.504000008106232 0.74211323261261 0.025000000372529 -1 0 0 250 250 250
0.504000008106232 0.502309381961823 0.739940166473389 0.5 -0.8660254 0 250 250 250
0.504000008106232 0.502309381961823 1.5 0.5 -0.8660254 0 250 250 250
0.919352471828461 0.74211323261261 0.739940166473389 0.5 -0.8660254 0 250 250 250
0.919352471828461 0.742113292217255 1.5 0.5 -0.8660254 0 250 250 250
0.711676239967346 0.622211337089539 0.739940166473389 0.5 -0.8660254 0 250 250 250
0.504000008106232 0.502309381961823 1.11997008323669 0.5 -0.8660254 0 250 250 250
0.919352471828461 0.74211323261261 1.11997008323669 0.5 -0.8660254 0 250 250 250
0.504000008106232 1.24600005149841 0.0500000007450581 0 0 -1 250 250 250
1.24600005149841 1.24600005149841 0.0500000007450581 0 0 -1 250 250 250
0.875 1.24600005149841 0.0500000007450581 0 0 -1 250 250 250
0.504000008106232 0.981917083263397 0.0500000007450581 0 0 -1 250 250 250
0.711676239967346 0.862015187740326 0.0500000007450581 0 0 -1 250 250 250
0.919352471828461 0.74211323261261 0.0500000007450581 0 0 -1 250 250 250
0.919352471828461 0.75788676738739 0.0500000007450581 0 0 -1 250 250 250
1.24600005149841 0.946476817131042 0.0500000007450581 0 0 -1 250 250 250
0.875 0.9915372133255 0.0500000007450581 -6.938894E-18 0 -1 250 250 250
1.06050002574921 0.9915372133255 0.0500000007450581 -6.938894E-18 0 -1 250 250 250
0.875 0.864305794239044 0.0500000007450581 -3.469447E-18 0 -1 250 250 250
1.06050002574921 0.864305794239044 0.0500000007450581 -3.469447E-18 0 -1 250 250 250
0.967750012874603 0.864305794239044 0.0500000007450581 -3.469447E-18 0 -1 250 250 250
0.875 0.800690114498138 0.0500000007450581 5.20417E-18 0 -1 250 250 250
0.967750012874603 0.800690114498138 0.0500000007450581 5.20417E-18 0 -1 250 250 250
0.921374976634979 0.800690114498138 0.0500000007450581 5.20417E-18 0 -1 250 250 250
0.875 0.768882274627686 0.0500000007450581 2.602085E-18 0 -1 250 250 250
0.921374976634979 0.768882274627686 0.0500000007450581 2.602085E-18 0 -1 250 250 250
1.24600005149841 0.946476817131042 0.0500000007450581 0.5 -0.8660254 0 250 250 250
1.24600005149841 0.946476817131042 1.5 0.5 -0.8660254 0 250 250 250
0.919352471828461 0.75788676738739 1.5 0.5 -0.8660254 0 250 250 250
1.24600005149841 0.946476817131042 0.774999976158142 0.5 -0.8660254 0 250 250 250
0.919352471828461 0.75788676738739 0.0500000007450581 0.5 -0.8660254 0 250 250 250
0.919352471828461 0.75788676738739 0.774999976158142 0.5 -0.8660254 0 250 250 250
0.919352471828461 0.75788676738739 1.5 1 1.881871E-16 0 250 250 250
0.919352471828461 0.262505561113358 -5.55111512312578E-17 1 0 0 250 250 250
0.919352471828461 0.262505561113358 0.739940166473389 1 0 0 250 250 250
0.919352471828461 0.502309381961823 0.739940166473389 1 0 0 250 250 250
0.919352471828461 0.74211323261261 0.739940166473389 1 0 0 250 250 250
0.919352471828461 0.742113292217255 1.5 1 1.881871E-16 0 250 250 250
0.919352471828461 0.74211323261261 1.11997008323669 1 0 0 250 250 250
0.919352471828461 0.75788676738739 0.0500000007450581 1 2.352339E-17 0 250 250 250
0.919352471828461 0.74211323261261 0.0500000007450581 1 -9.409357E-17 0 250 250 250
0.919352471828461 0.634041428565979 0.375 1 -9.409357E-17 0 250 250 250
0.919352471828461 0.634041428565979 0.1875 1 4.704679E-17 0 250 250 250
0.919352471828461 0.695964097976685 0.375 1 -9.409357E-17 0 250 250 250
0.919352471828461 0.695964097976685 0.1875 1 4.704679E-17 0 250 250 250
0.919352471828461 0.695964097976685 0.09375 1 -7.057018E-17 0 250 250 250
0.919352471828461 0.726925432682037 0.1875 1 4.704679E-17 0 250 250 250
0.919352471828461 0.726925432682037 0.09375 1 -7.057018E-17 0 250 250 250
0.919352471828461 0.74211323261261 -6.93889390390723E-18 1 0 0 250 250 250
0.919352471828461 0.75788676738739 0.774999976158142 1 -9.409357E-17 0 250 250 250
0.919352471828461 0.502309381961823 -3.12250225675825E-17 1 0 0 250 250 250
3 4 2 6
3 6 2 1
3 4 6 0
3 5 4 3
3 5 7 2
3 4 5 2
3 10 16 8
3 10 9 15
3 15 16 10
3 10 11 13
3 12 10 14
3 13 14 10
3 8 11 10
3 21 23 22
3 21 22 17
3 23 21 19
3 19 21 20
3 18 23 19
3 28 26 27
3 29 28 27
3 27 24 29
3 28 29 25
4 36 35 37 31
3 34 36 30
3 35 34 32
3 35 33 37
3 34 35 36
3 41 42 43
3 38 41 44
3 43 44 41
3 44 43 45
3 45 46 39
3 45 47 44
3 47 40 44
3 45 43 46
4 53 48 50 52
4 49 53 52 51
3 64 63 67
3 66 62 64
3 67 66 64
3 70 62 66
3 74 68 70
3 66 74 70
4 62 70 73 65
4 70 68 71 73
4 73 71 69 72
3 69 58 54
3 72 69 54
3 72 54 59
3 71 58 69
3 74 55 58
3 66 57 74
3 55 74 57
3 58 68 74
3 68 58 71
3 65 73 72
3 64 62 65
3 64 60 63
3 65 60 64
3 65 59 60
3 59 65 72
3 56 67 61
3 63 61 67
4 56 57 66 67
3 63 60 61
4 85 87 86 84
3 81 75 86
3 84 86 75
3 87 81 86
3 76 80 87
3 81 87 80
3 85 76 87
3 77 83 84
3 75 77 84
3 78 82 77
3 76 85 83
3 83 85 84
3 83 82 79
3 83 77 82
3 91 88 92
3 91 95 89
3 95 91 92
3 92 93 95
3 93 94 95
3 90 93 92
3 100 101 96
4 97 101 102 99
3 102 100 98
3 100 102 101
3 115 112 114
3 111 115 113
3 112 115 111
3 118 115 117
3 113 118 116
3 115 118 113
4 118 120 119 116
3 116 119 107
3 108 107 119
3 109 108 119
3 113 116 107
3 111 106 103
3 105 111 103
3 111 107 106
3 111 105 112
3 111 113 107
3 120 109 119
3 120 117 109
3 120 118 117
3 110 109 117
3 117 115 114
3 104 110 112
3 114 112 110
3 105 104 112
3 117 114 110
4 124 126 125 121
4 122 123 126 124
4 136 137 139 138
4 139 140 142 141
3 134 142 135
3 143 135 142
3 142 140 143
3 134 144 141
3 133 144 127
3 132 133 127
3 131 144 133
3 141 144 131
3 134 141 142
3 140 137 145
3 139 137 140
4 128 145 130 129
3 145 143 140
3 138 139 141
3 137 136 145
3 136 130 145
3 136 131 130
3 138 131 136
3 131 138 141
0 0 0 255 250 250 250 255 0 0 0 255 255 255 255 255 0 0
