ply
format ascii 1.0
comment File exported by Rhinoceros Version 7.0
element vertex 34
property float x
property float y
property float z
property float nx
property float ny
property float nz
property uchar red
property uchar green
property uchar blue
element face 64
property list uchar uint vertex_indices
element material 1
property uchar ambient_red
property uchar ambient_green
property uchar ambient_blue
property uchar ambient_alpha
property uchar diffuse_red
property uchar diffuse_green
property uchar diffuse_blue
property uchar diffuse_alpha
property uchar emissive_red
property uchar emissive_green
property uchar emissive_blue
property uchar emissive_alpha
property uchar specular_red
property uchar specular_green
property uchar specular_blue
property uchar specular_alpha
property double shine
property double transparency
end_header
-0.24600000679493 0.064677894115448 1.5 -0.3535534 0.6123725 0.7071068 230 230 230
-0.24600000679493 -0.24600000679493 1.5 -0.7071068 2.526882E-16 0.7071068 230 230 230
1.24600005149841 -0.24600000679493 1.5 0 -0.7071068 0.7071068 230 230 230
1.24600005149841 0.064677894115448 0.00999999977648258 0.6160549 0.5156729 -0.5954477 230 230 230
0.5 0.495381206274033 0.00999999977648258 -0.08900751 0.8985425 -0.4297662 230 230 230
0.5 0.495381206274033 1.5 0.3535534 0.6123725 0.7071068 230 230 230
-0.24600000679493 0.064677894115448 0.00999999977648258 -0.8226644 0.3721885 -0.4297662 230 230 230
-0.24600000679493 -0.24600000679493 0.00999999977648258 -0.5 -0.7071068 -0.5 230 230 230
1.24600005149841 -0.24600000679493 0.00999999977648258 0.7071068 -0.5 -0.5 230 230 230
1.24600005149841 0.064677894115448 1.5 0.8226644 0.3721885 0.4297662 230 230 230
0.502772688865662 0.492625653743744 1.5 0 0 1 230 230 230
0.5 0.494226485490799 1.5 0 0 1 230 230 230
0.5 0.0157735031098127 1.5 0 0 1 230 230 230
0.805257320404053 0.192013874650002 1.5 0 0 1 230 230 230
0.497227281332016 0.492625653743744 1.5 0 0 1 230 230 230
0.19474270939827 0.192013889551163 1.5 0 0 1 230 230 230
0.914352476596832 0.254999995231628 1.5 0 0 1 229 229 229
0.497227281332016 0.492625653743744 0.00999999977648258 -0.3535534 0.6123725 -0.7071068 240 240 240
0.0856475532054901 0.254999995231628 1.5 0 0 1 230 230 230
0.605659902095795 0.0767762586474419 0.00999999977648258 0.3535534 -0.6123725 -0.7071068 240 240 240
0.5 0.494226485490799 0.00999999977648258 0.08900751 0.8985425 -0.4297662 245 245 245
0.5 0.0157735031098127 0.00999999977648258 -0.08900751 -0.8985425 -0.4297662 245 245 245
0.914352476596832 0.254999995231628 0.00999999977648258 0.7506706 0.2230789 -0.6218758 245 245 245
0.808692574501038 0.316002756357193 0.00999999977648258 0.3535534 0.6123725 -0.7071068 240 240 240
0.394340127706528 0.433223724365234 0.00999999977648258 -0.3535534 0.6123725 -0.7071068 240 240 240
0.191307425498962 0.193997234106064 0.00999999977648258 -0.3535534 -0.6123725 -0.7071068 240 240 240
0.502772688865662 0.492625653743744 0.00999999977648258 0.3535534 0.6123725 -0.7071068 240 240 240
0.805257320404053 0.192013874650002 0.00999999977648258 0.3535534 -0.6123725 -0.7071068 240 240 240
0.19474270939827 0.192013889551163 0.00999999977648258 -0.3535534 -0.6123725 -0.7071068 240 240 240
0.5 0.0157735031098127 -0.5 0 -0.8314696 -0.5555702 250 250 250
0.914352476596832 0.254999995231628 -0.5 0.7071068 0 -0.7071068 250 250 250
0.5 0.494226485490799 -0.5 0 0.9238796 -0.3826834 250 250 250
0.0856475532054901 0.254999995231628 -0.5 -0.8314696 0 -0.5555702 250 250 250
0.0856475532054901 0.254999995231628 0.00999999977648258 -0.6234421 0.2197942 -0.7503402 243 243 243
3 22 30 23
3 21 29 19
3 33 32 25
3 24 17 31
3 20 31 17
3 26 31 20
3 30 31 23
3 26 23 31
3 27 30 22
3 30 27 29
3 19 29 27
3 28 29 21
3 29 28 32
3 25 32 28
3 24 32 33
3 32 24 31
3 31 29 32
3 29 31 30
3 2 13 12
3 14 11 5
3 10 11 14
3 5 11 10
3 13 10 12
3 14 12 10
3 12 14 15
3 2 12 1
3 15 1 12
3 5 10 16
3 13 16 10
3 16 13 9
3 5 16 9
3 9 13 2
3 18 0 15
3 5 0 18
3 15 0 1
3 5 18 14
3 15 14 18
3 27 8 19
3 17 4 20
3 26 20 4
3 8 7 21
3 8 21 19
3 21 7 28
3 4 3 22
3 3 27 22
3 27 3 8
3 22 23 4
3 26 4 23
3 25 6 33
3 4 33 6
3 7 6 28
3 25 28 6
3 33 4 24
3 24 4 17
3 3 5 9
3 8 9 2
3 7 2 1
3 6 1 0
3 4 0 5
3 3 4 5
3 8 3 9
3 7 8 2
3 6 7 1
3 4 6 0
0 0 0 255 250 250 250 255 0 0 0 255 255 255 255 255 0 0
