ply
format ascii 1.0
comment File exported by Rhinoceros Version 7.0
element vertex 28
property float x
property float y
property float z
property float nx
property float ny
property float nz
property uchar red
property uchar green
property uchar blue
element face 52
property list uchar uint vertex_indices
element material 1
property uchar ambient_red
property uchar ambient_green
property uchar ambient_blue
property uchar ambient_alpha
property uchar diffuse_red
property uchar diffuse_green
property uchar diffuse_blue
property uchar diffuse_alpha
property uchar emissive_red
property uchar emissive_green
property uchar emissive_blue
property uchar emissive_alpha
property uchar specular_red
property uchar specular_green
property uchar specular_blue
property uchar specular_alpha
property double shine
property double transparency
end_header
-0.24600000679493 0.0739155039191246 1.5 -0.7071068 0 0.7071068 230 230 230
0.495999991893768 0.502309381961823 1.5 0.3535534 -0.6123725 0.7071068 230 230 230
0.495999991893768 1.24600005149841 0.00999999977648258 0.3826834 0.6532815 -0.6532815 230 230 230
-0.24600000679493 1.24600005149841 0.00999999977648258 -0.7071068 0.5 -0.5 230 230 230
-0.24600000679493 1.24600005149841 1.5 0 0.7071068 0.7071068 230 230 230
-0.24600000679493 0.0739155039191246 0.00999999977648258 -0.1821432 -0.7616392 -0.6218758 230 230 230
0.495999991893768 0.502309381961823 0.00999999977648258 0.8226644 -0.3721885 -0.4297662 230 230 230
0.495999991893768 1.24600005149841 1.5 0.7071068 0.5 0.5 230 230 230
0.495000004768372 0.503311634063721 0.00999999977648258 0.7071068 -3.138689E-12 -0.7071068 240 240 240
0.495000004768372 0.503311634063721 1.5 0 0 1 229 229 229
0.192379489541054 0.806621670722961 1.5 0 0 1 230 230 230
0.495000004768372 0.502886772155762 1.5 0 0 1 229 229 229
0.0806475505232811 0.74211323261261 1.5 0 0 1 230 230 230
0.0806475505232811 0.263660252094269 1.5 0 0 1 230 230 230
0.495000004768372 0.981339752674103 1.5 0 0 1 230 230 230
0.495000004768372 0.502886772155762 0.00999999977648258 0.7336569 -0.526354 -0.4297662 245 245 245
0.186307430267334 0.324663013219833 0.00999999977648258 0.3535534 -0.6123725 -0.7071068 240 240 240
0.0806475505232811 0.74211323261261 0.00999999977648258 -0.8226644 0.3721885 -0.4297662 245 245 245
0.495000004768372 0.981339752674103 0.00999999977648258 0.1821432 0.7616392 -0.6218758 245 245 245
0.495000004768372 0.624892294406891 0.00999999977648258 0.7071068 -3.138689E-12 -0.7071068 240 240 240
0.389340132474899 0.920336961746216 0.00999999977648258 -0.3535534 0.6123725 -0.7071068 240 240 240
0.0806475505232811 0.74211323261261 -0.5 -0.6123725 0.3535534 -0.7071068 250 250 250
0.0806475505232811 0.263660252094269 -0.5 -0.4157348 -0.7200738 -0.5555702 250 250 250
0.495000004768372 0.502886772155762 -0.5 0.8001031 -0.4619398 -0.3826834 250 250 250
0.495000004768372 0.981339752674103 -0.5 0.3535534 0.6123725 -0.7071068 250 250 250
0.0806475505232811 0.620107710361481 0.00999999977648258 -0.7071068 3.138607E-12 -0.7071068 240 240 240
0.0806475505232811 0.263660252094269 0.00999999977648258 -0.5685273 -0.5385603 -0.6218758 245 245 245
0.192379489541054 0.806621670722961 0.00999999977648258 -0.3535534 0.6123725 -0.7071068 240 240 240
3 19 8 23
3 15 23 8
3 16 26 22
3 25 17 21
3 18 24 20
3 19 24 18
3 24 19 23
3 16 23 15
3 23 16 22
3 25 22 26
3 22 25 21
3 27 21 17
3 21 27 24
3 20 24 27
3 23 22 21
3 21 24 23
3 10 12 9
3 12 0 13
3 4 0 12
3 12 10 4
3 0 1 13
3 12 11 9
3 11 12 13
3 1 11 13
3 11 1 9
3 7 14 1
3 10 9 14
3 1 14 9
3 14 7 10
3 7 4 10
3 5 26 6
3 3 25 5
3 17 25 3
3 6 26 16
3 25 26 5
3 16 15 6
3 3 27 17
3 8 6 15
3 19 6 8
3 2 6 18
3 19 18 6
3 3 20 27
3 3 2 20
3 18 20 2
3 2 4 7
3 6 7 1
3 5 1 0
3 3 0 4
3 2 3 4
3 6 2 7
3 5 6 1
3 3 5 0
0 0 0 255 250 250 250 255 0 0 0 255 255 255 255 255 0 0
