ply
format ascii 1.0
comment File exported by Rhinoceros Version 7.0
element vertex 36
property float x
property float y
property float z
property float nx
property float ny
property float nz
property uchar red
property uchar green
property uchar blue
element face 61
property list uchar uint vertex_indices
element material 1
property uchar ambient_red
property uchar ambient_green
property uchar ambient_blue
property uchar ambient_alpha
property uchar diffuse_red
property uchar diffuse_green
property uchar diffuse_blue
property uchar diffuse_alpha
property uchar emissive_red
property uchar emissive_green
property uchar emissive_blue
property uchar emissive_alpha
property uchar specular_red
property uchar specular_green
property uchar specular_blue
property uchar specular_alpha
property double shine
property double transparency
end_header
0.500000059604645 0.0157735086977482 -0.5 0.08900753 -0.8985425 -0.4297662 250 250 250
0.707676231861115 0.135675430297852 -0.5 0.3535534 -0.6123725 -0.7071068 250 250 250
0.915352463722229 0.255577355623245 -0.5 0.7506706 0.2230789 -0.6218758 250 250 250
0.707676231861115 0.375479280948639 -0.5 0.3535534 0.6123725 -0.7071068 250 250 250
0.5 0.495381206274033 -0.5 -0.08900751 0.8985425 -0.4297662 250 250 250
-0.24600000679493 0.064677894115448 0.754999995231628 -0.8660254 0.5 0 250 250 250
-0.24600000679493 -0.24600000679493 0.754999995231628 -0.7071068 -0.7071068 0 250 250 250
1.24600005149841 -0.24600000679493 1.5 0.5 -0.7071068 0.5 250 250 250
1.24600005149841 0.064677894115448 1.5 0.7336569 0.526354 0.4297662 250 250 250
1.24600005149841 -0.24600000679493 0.754999995231628 0.7071068 -0.7071068 0 250 250 250
1.24600005149841 0.064677894115448 0.754999995231628 0.8660254 0.5 0 250 250 250
-0.24600000679493 -0.24600000679493 1.5 -1.962616E-17 -0.7071068 0.7071068 250 250 250
0.5 0.495381206274033 1.5 0.08900751 0.8985425 0.4297662 250 250 250
-0.24600000679493 0.064677894115448 1.5 -0.8226644 0.3721885 0.4297662 250 250 250
0.5 -0.24600000679493 1.5 0 -0.7071068 0.7071068 250 250 250
0.0846475660800934 0.255577355623245 -0.5 -0.7071068 -4.214685E-08 -0.7071068 250 250 250
0.292323797941208 0.135675430297852 -0.5 -0.3535534 -0.6123725 -0.7071068 250 250 250
0.500000059604645 0.0157735086977482 -0.245000004768372 1.720638E-08 -1 0 250 250 250
0.0846475660800934 0.255577355623245 -0.245000004768372 -1 -5.960464E-08 0 250 250 250
0.915352463722229 0.255577355623245 -0.245000004768372 1 0 0 250 250 250
0.707676231861115 0.135675430297852 0.00999999977648258 0.3535534 -0.6123725 -0.7071068 250 250 250
0.707676231861115 0.375479280948639 0.00999999977648258 0.5 0.8660254 -6.938894E-18 250 250 250
0.5 0.495381206274033 0.00999999977648258 0.1305262 0.9914449 0 250 250 250
0.5 0.495381206274033 -0.245000004768372 0 1 0 250 250 250
0.292323797941208 0.375479280948639 -0.5 -0.3535534 0.6123725 -0.7071068 250 250 250
0.292323797941208 0.375479280948639 0.00999999977648258 -0.5 0.8660254 0 250 250 250
0.0846475660800934 0.255577355623245 0.00999999977648258 -0.927294 -0.06354802 -0.3689005 250 250 250
0.5 0.495381206274033 0.739940166473389 0 1 0 250 250 250
-0.24600000679493 -0.24600000679493 0.00999999977648258 -0.5 -0.7071068 -0.5 250 250 250
1.24600005149841 -0.24600000679493 0.00999999977648258 0.5 -0.7071068 -0.5 250 250 250
-0.24600000679493 0.064677894115448 0.00999999977648258 -0.7336569 0.526354 -0.4297662 250 250 250
0.5 -0.24600000679493 0.00999999977648258 0 -0.7071068 -0.7071068 250 250 250
1.24600005149841 0.064677894115448 0.00999999977648258 0.7336569 0.526354 -0.4297662 250 250 250
0.915352463722229 0.255577355623245 0.00999999977648258 0.6100296 0.5387158 -0.5810758 250 250 250
0.500000059604645 0.0157735086977482 0.00999999977648258 0.08900753 -0.8985425 -0.4297662 250 250 250
0.292323797941208 0.135675430297852 0.00999999977648258 -0.3535534 -0.6123725 -0.7071068 250 250 250
3 24 16 15
3 24 4 3
3 1 16 24
3 24 3 1
3 1 3 2
3 0 16 1
4 5 30 28 6
4 13 5 6 11
3 6 28 31
3 6 14 11
3 14 6 31
3 31 9 14
3 9 7 14
3 29 9 31
4 9 29 32 10
4 7 9 10 8
3 10 32 33
4 8 10 27 12
3 27 10 33
3 27 21 22
3 21 27 33
3 13 11 14
3 12 13 14
3 12 14 8
3 7 8 14
3 18 15 16
3 18 35 26
3 35 18 16
3 16 17 35
3 17 34 35
3 0 17 16
3 17 0 1
3 17 20 34
3 19 17 1
3 17 19 20
3 19 33 20
3 2 19 1
3 19 2 3
3 19 21 33
3 21 19 3
4 21 3 23 22
3 4 23 3
3 24 25 23
3 23 25 22
3 24 23 4
3 18 24 15
3 18 26 25
3 24 18 25
3 27 22 25
4 12 27 5 13
3 26 27 25
3 5 26 30
3 26 5 27
3 34 28 30
3 26 35 30
3 30 35 34
3 31 28 34
3 32 29 34
3 31 34 29
3 33 32 20
3 34 20 32
0 0 0 255 250 250 250 255 0 0 0 255 255 255 255 255 0 0
