ply
format ascii 1.0
comment File exported by Rhinoceros Version 7.0
element vertex 131
property float x
property float y
property float z
property float nx
property float ny
property float nz
property uchar red
property uchar green
property uchar blue
element face 258
property list uchar uint vertex_indices
element material 1
property uchar ambient_red
property uchar ambient_green
property uchar ambient_blue
property uchar ambient_alpha
property uchar diffuse_red
property uchar diffuse_green
property uchar diffuse_blue
property uchar diffuse_alpha
property uchar emissive_red
property uchar emissive_green
property uchar emissive_blue
property uchar emissive_alpha
property uchar specular_red
property uchar specular_green
property uchar specular_blue
property uchar specular_alpha
property double shine
property double transparency
end_header
0.0806475505232811 0.26366026327014 -0.5 -0.1821432 -0.7616392 -0.6218759 250 250 250
-0.245999999344349 0.0739154927432537 0.00999999046325684 -0.5685273 -0.5385603 -0.6218758 250 250 250
0.495999984443188 0.502309378236532 0.00999999046325684 0.7336568 -0.5263541 -0.4297663 250 250 250
0.494999997317791 0.981339763849974 -0.245001196861267 0.4809867 0.8762447 0.02910613 250 250 250
0.494999997317791 0.724668171256781 -0.205016493797302 0.99923 -0.02669695 0.02875032 250 250 250
0.494999997317791 0.708582438528538 -0.5 0.7071068 0 -0.7071068 250 250 250
0.266986198723316 0.849695902317762 -0.244816184043884 -0.5000001 0.8660254 2.819819E-08 250 250 250
0.284367613494396 0.62580107152462 -0.5 0 0 -1 250 250 250
0.0806475505232811 0.537394162267447 -0.24498724937439 -1 0 0 250 250 250
0.315943188965321 0.399508278816938 -0.5 0.3535534 -0.6123724 -0.7071068 250 250 250
0.277448453009129 0.377283286303282 -0.245018482208252 0.5 -0.8660254 -8.379713E-09 250 250 250
0.494999997317791 0.502886768430471 -0.245001256465912 0.8366039 -0.5473133 0.02328122 250 250 250
0.494999997317791 0.601842924952507 0.00999999046325684 0.7151084 -0.07726605 -0.6947301 250 250 250
0.495999984443188 0.611244603991508 0.00999999046325684 0.7071067 -2.263022E-08 -0.7071068 250 250 250
0.418466322124004 0.458700012415648 0.00999999046325684 0.4281101 -0.3135689 -0.8475826 250 250 250
-0.245999999344349 0.590421784669161 0.00999999046325684 -0.7071068 0 -0.7071068 250 250 250
-0.245999999344349 0.880159806460142 0.00999999046325684 -0.7071068 0 -0.7071068 250 250 250
0.0751296803355217 0.259319793432951 0.00999999046325684 0.3535534 -0.6123725 -0.7071068 250 250 250
-0.245999999344349 0.343609999865294 0.00999999046325684 -0.7071068 0 -0.7071068 250 250 250
0.238996781408787 0.35392851755023 0.00999999046325684 0.3535534 -0.6123725 -0.7071068 250 250 250
0.494999997317791 0.790592577308416 0.00999999046325684 0.7166463 0.02891385 -0.6968372 250 250 250
0.495999984443188 0.790872629731894 0.00999999046325684 0.7071067 5.872274E-08 -0.7071068 250 250 250
0.462731681764126 0.96270964667201 0.00999999046325684 0.1582368 0.3026115 -0.9398869 250 250 250
0.327692933380604 1.24600006267428 0.00999999046325684 0 0.7071068 -0.7071068 250 250 250
-0.245999999344349 0.396341990679502 1.20178520679474 -1 0 0 250 250 250
-0.245999999344349 0.0739154927432537 1.20200002193451 -0.5 -0.8660254 -8.030995E-09 250 250 250
0.00541567802429199 0.219070356339216 1.5 0.3535534 -0.6123725 0.7071068 250 250 250
-0.0482290163636208 0.473366614431143 1.5 0 0 1 250 250 250
-0.0224663987755775 0.202972691506147 1.20156240463257 0.4999999 -0.8660254 2.069165E-08 250 250 250
-0.245999999344349 0.915889214724302 0.308434814214706 -1 0 0 250 250 250
-0.245999999344349 1.24600006267428 0.30799999833107 -0.7071068 0.7071068 0 250 250 250
-0.052870012819767 1.24600006267428 0.00999999046325684 0 0.7071068 -0.7071068 250 250 250
-0.0559078827500343 1.24600006267428 0.308004796504974 0 1 0 250 250 250
0.00371325016021729 0.218087505549192 0.310904443264008 0.5 -0.8660254 -2.471643E-09 250 250 250
-0.245999999344349 0.0739154927432537 0.307999968528748 -0.5 -0.8660254 -6.97832E-09 250 250 250
-0.245999999344349 0.351270329207182 0.3079933822155 -1 0 0 250 250 250
0.496000044047832 0.652079672552645 0.308906778693199 1 -2.617112E-08 -5.435238E-08 250 250 250
0.495999984443188 0.502309378236532 0.308000087738037 0.8660253 -0.5000001 -1.74657E-08 250 250 250
0.360800497233868 0.424251925200224 0.309281200170517 0.5 -0.8660254 3.965763E-09 250 250 250
0.318044774234295 1.24600006267428 0.308038741350174 0 1 0 250 250 250
0.495999984443188 1.24600006267428 0.30799999833107 0.7071068 0.7071068 -1.851759E-08 250 250 250
0.495999984443188 1.02519721910357 0.308698296546936 1 -1.699458E-09 -2.425649E-08 250 250 250
-0.041509173810482 1.00443599745631 1.5 0 0 1 250 250 250
-0.0472258999943733 1.24600006267428 1.5 0 0.7071068 0.7071068 250 250 250
-0.053563229739666 1.24600006267428 1.20198261737823 0 1 0 250 250 250
-0.245999999344349 0.973472665995359 1.20196092128754 -1 0 0 250 250 250
0.346503786742687 0.415997680276632 1.20159769058228 0.5000001 -0.8660254 -8.310934E-10 250 250 250
0.495999984443188 0.502309378236532 1.20200002193451 0.8660254 -0.5000001 1.379147E-08 250 250 250
0.360476590692997 0.627632461488247 1.5 0 0 1 250 250 250
0.49600001424551 0.673220583237708 1.20189213752747 1 -5.222121E-09 5.100718E-08 250 250 250
0.496000044047832 1.04667372629046 1.20195233821869 1 -4.383484E-09 4.825589E-08 250 250 250
0.495999984443188 1.24600006267428 1.20200002193451 0.7071067 0.7071069 3.679128E-08 250 250 250
0.3498929515481 1.02859963104129 1.5 0 0 1 250 250 250
0.318640433251858 1.24600006267428 1.20196676254272 0 1 0 250 250 250
0.135572270490229 1.24600006267428 1.20195662975311 0 1 0 250 250 250
0.314502008259296 1.24600006267428 0.90399432182312 0 1 0 250 250 250
0.130404826719314 1.24600006267428 0.903991281986237 0 1 0 250 250 250
-0.0568282380700111 1.24600006267428 0.903996020555496 0 1 0 250 250 250
0.314216889441013 1.24600006267428 0.606004029512405 0 1 0 250 250 250
0.129723748192191 1.24600006267428 0.606003478169441 0 1 0 250 250 250
-0.0574042722582817 1.24600006267428 0.606001019477844 0 1 0 250 250 250
-0.245999999344349 1.24600006267428 0.903999984264374 -0.7071068 0.7071068 0 250 250 250
0.132904796861112 1.24600006267428 0.308021456003189 0 1 0 250 250 250
-0.245999999344349 0.957990061491728 0.904005706310272 -1 0 0 250 250 250
-0.245999999344349 0.941001754254103 0.60611467063427 -1 0 0 250 250 250
-0.245999999344349 0.647681346163154 0.606066077947617 -1 0 0 250 250 250
-0.245999999344349 0.669542975723743 0.90395399928093 -1 0 0 250 250 250
-0.245999999344349 0.622379008680582 0.308214575052261 -1 0 0 250 250 250
-0.245999999344349 0.36210049316287 0.605983294546604 -1 0 0 250 250 250
-0.245999999344349 0.0739154927432537 0.903999984264374 -0.5 -0.8660254 2.064973E-08 250 250 250
-0.245999999344349 0.376168888062239 0.903928458690643 -1 0 0 250 250 250
-0.245999999344349 0.693848486989737 1.20182228088379 -1 0 0 250 250 250
-0.0475982651114464 0.757315184921026 1.5 0 0 1 250 250 250
0.166802059859037 0.562254410237074 1.5 0 0 1 250 250 250
0.174942895770073 0.79332933947444 1.5 0 0 1 250 250 250
0.165233764797449 1.01772383973002 1.5 0 0 1 250 250 250
0.370910875499249 0.821619134396315 1.5 0 0 1 250 250 250
0.495999984443188 0.854687955230474 1.20188820362091 1 -3.418712E-08 4.935952E-08 250 250 250
0.496000044047832 0.678093574941158 0.904000490903854 1 -6.76917E-09 2.465845E-08 250 250 250
0.495999984443188 0.859984319657087 0.90400305390358 1 7.114501E-09 -5.485408E-10 250 250 250
0.496000044047832 1.04997704550624 0.904002785682678 1 -4.980187E-09 -2.505163E-08 250 250 250
0.495999984443188 0.853417407721281 0.606163822114468 1 8.716565E-08 -3.014437E-08 250 250 250
0.49600001424551 1.04480655118823 0.606112256646156 1 -4.041087E-09 -4.859989E-08 250 250 250
0.495999984443188 0.831133957952261 0.308661222457886 1 1.050681E-07 -4.773774E-08 250 250 250
0.496000044047832 0.672879241406918 0.606121353805065 1 -1.398558E-08 -3.625553E-09 250 250 250
0.495999984443188 0.502309378236532 0.606000125408173 0.8660253 -0.5000002 1.472989E-08 250 250 250
0.334326289594173 0.408967059105635 0.903930485248566 0.5000001 -0.8660254 -4.304101E-08 250 250 250
0.337975822389126 0.411074083298445 0.606226921081543 0.5 -0.8660254 -6.71152E-09 250 250 250
0.159894596785307 0.308258783072233 0.903888642787933 0.5000001 -0.8660254 -4.269388E-08 250 250 250
0.165101297199726 0.31126494333148 0.606378205120564 0.5 -0.8660254 -5.073421E-08 250 250 250
0.192333236336708 0.326987307518721 0.309214323759079 0.5 -0.8660254 2.331803E-09 250 250 250
-0.0286259576678276 0.199416439980268 0.606388106942177 0.5 -0.8660254 -4.782844E-08 250 250 250
-0.0343466177582741 0.196113597601652 0.903938740491867 0.4999999 -0.8660254 1.32443E-09 250 250 250
0.175658598542213 0.317360144108534 1.20135229825974 0.5 -0.8660254 3.582048E-08 250 250 250
0.21078959852457 0.337643098086119 1.5 0.3535534 -0.6123724 0.7071068 250 250 250
0.494999997317791 0.981339763849974 -0.5 0.3535534 0.6123725 -0.7071068 250 250 250
0.0806475505232811 0.74211322888732 -0.5 -0.7336569 0.526354 -0.4297662 250 250 250
0.251264788210392 0.840619157999754 -0.5 -0.3535534 0.6123725 -0.7071068 250 250 250
0.0806475505232811 0.548358451575041 -0.5 -0.7071068 0 -0.7071068 250 250 250
0.494999997317791 0.502886768430471 -0.5 0.7336569 -0.526354 -0.4297663 250 250 250
0.0806475505232811 0.74211322888732 0.00999999046325684 -0.6123725 0.3535534 -0.7071068 250 250 250
0.0806475505232811 0.74211322888732 -0.244998931884766 -0.8660254 0.5 1.853095E-08 250 250 250
0.0806475505232811 0.26366026327014 0.00999999046325684 -0.3535534 -0.6123725 -0.7071068 250 250 250
0.0806475505232811 0.26366026327014 -0.244999527931213 -0.5 -0.8660254 -5.728459E-09 250 250 250
0.0806475505232811 0.547384258359671 0.00999999046325684 -0.7071068 0 -0.7071068 250 250 250
-0.245999999344349 0.0739154927432537 1.5 -0.1821432 -0.7616393 0.6218758 250 250 250
-0.245999999344349 1.24600006267428 0.00999999046325684 -0.5 0.7071068 -0.5 250 250 250
0.495999984443188 1.24600006267428 0.00999999046325684 0.5 0.7071068 -0.5 250 250 250
-0.245999999344349 1.24600006267428 1.5 -0.5 0.7071068 0.5 250 250 250
0.495999984443188 0.502309378236532 1.5 0.8226644 -0.3721885 0.4297663 250 250 250
0.495999984443188 1.24600006267428 1.5 0.4999999 0.7071068 0.5 250 250 250
0.404544286429882 0.449507396668196 0.00999999046325684 0.3535534 -0.6123725 -0.7071068 250 250 250
0.238633058965206 0.35487325116992 0.00999999046325684 0.3535534 -0.6123725 -0.7071068 250 250 250
0.269987009465694 0.851428400725126 0.00999999046325684 -0.3535534 0.6123724 -0.7071068 250 250 250
0.495999984443188 0.983134310692549 0.00999999046325684 0.7071068 0 -0.7071068 250 250 250
-0.245999999344349 0.424527239054441 1.5 -0.7071068 0 0.7071068 250 250 250
0.139892660081387 1.24600006267428 0.00999999046325684 0 0.7071068 -0.7071068 250 250 250
-0.245999999344349 0.990283321589231 1.5 -0.7071068 0 0.7071068 250 250 250
-0.245999999344349 0.724267195910215 1.5 -0.7071068 0 0.7071068 250 250 250
-0.245999999344349 1.24600006267428 1.20199990272522 -0.7071068 0.7071068 0 250 250 250
0.373549349606037 0.431612472981215 1.5 0.3535534 -0.6123724 0.7071068 250 250 250
0.495999984443188 0.657894906587899 1.5 0.7071068 -3.209432E-09 0.7071068 250 250 250
0.495999984443188 1.03691051527858 1.5 0.7071067 -2.467698E-09 0.7071068 250 250 250
0.495999984443188 0.839051928371191 1.5 0.7071067 -2.50044E-08 0.7071068 250 250 250
0.327612109482288 1.24600006267428 1.5 0 0.7071068 0.7071068 250 250 250
0.146149806678295 1.24600006267428 1.5 0 0.7071068 0.7071068 250 250 250
0.495999984443188 1.24600006267428 0.903999984264374 0.7071067 0.7071069 -1.778183E-08 250 250 250
0.495999984443188 1.24600006267428 0.605999991297722 0.7071067 0.7071068 -3.689034E-08 250 250 250
-0.245999999344349 1.24600006267428 0.605999991297722 -0.7071068 0.7071068 0 250 250 250
-0.245999999344349 0.0739154927432537 0.605999991297722 -0.5 -0.8660254 -2.511575E-08 250 250 250
0.495999984443188 0.502309378236532 0.904000073671341 0.8660253 -0.5000001 3.904556E-09 250 250 250
3 95 3 5
3 95 97 6
3 95 5 97
3 96 101 97
3 96 98 101
3 96 97 7
3 0 103 8
3 0 9 10
3 0 98 9
3 99 11 9
3 99 5 11
3 99 9 7
3 14 12 2
3 2 111 14
3 100 104 15
3 100 113 6
3 100 101 104
3 102 17 18
3 102 112 19
3 102 103 112
3 102 104 8
3 22 20 3
3 22 114 21
3 22 23 107
3 22 3 6
3 105 115 24
3 105 26 115
3 105 25 28
3 106 16 29
3 106 31 16
3 106 30 32
3 1 17 33
3 1 34 18
3 2 13 37
3 2 37 111
3 107 23 40
3 107 40 41
3 108 117 42
3 108 43 44
3 108 119 117
3 109 120 47
3 109 121 48
3 109 47 121
3 110 122 50
3 110 124 52
3 110 51 124
3 53 54 125
3 53 51 126
3 53 55 54
3 56 57 44
3 56 55 58
3 56 59 57
3 60 128 61
3 60 59 32
3 60 32 30
3 62 59 58
3 62 39 116
3 62 116 31
3 116 23 113
3 61 63 45
3 61 119 57
3 61 128 63
3 64 65 66
3 64 128 30
3 64 29 65
3 67 35 68
3 67 29 16
3 67 15 35
3 68 129 69
3 68 70 65
3 68 35 129
3 70 69 25
3 70 24 66
3 71 24 115
3 71 118 45
3 71 45 63
3 118 115 27
3 118 72 117
3 72 27 73
3 72 74 42
3 75 74 76
3 75 52 124
3 75 125 42
3 76 48 121
3 76 123 52
3 76 74 48
3 123 121 49
3 123 77 122
3 77 49 78
3 77 79 50
3 80 126 51
3 80 79 82
3 80 82 127
3 127 58 55
3 127 82 40
3 127 40 39
3 82 81 41
3 83 81 84
3 83 36 21
3 83 21 114
3 84 81 78
3 84 78 130
3 84 85 36
3 85 130 87
3 85 87 38
3 87 86 89
3 87 89 90
3 90 89 33
3 90 33 17
3 90 19 38
3 91 89 88
3 91 92 129
3 91 129 34
3 92 88 28
3 92 28 25
3 93 46 94
3 93 94 26
3 93 88 86
3 94 120 73
3 94 73 27
3 86 130 46
3 130 78 49
3 125 54 43
3 21 13 20
3 19 112 111
3 112 10 14
3 18 15 104
3 31 116 100
3 20 12 4
3 12 14 11
3 3 4 5
3 95 6 3
3 5 7 97
3 101 6 97
3 98 8 101
3 96 7 98
3 0 8 98
3 0 10 103
3 98 7 9
3 11 10 9
3 5 4 11
3 99 7 5
3 12 13 2
3 100 15 16
3 100 6 101
3 101 8 104
3 17 1 18
3 102 19 17
3 103 10 112
3 102 8 103
3 20 4 3
3 22 21 20
3 22 107 114
3 22 6 113
3 105 24 25
3 26 27 115
3 105 28 26
3 106 29 30
3 31 100 16
3 106 32 31
3 1 33 34
3 34 35 18
3 13 36 37
3 37 38 111
3 23 39 40
3 107 41 114
3 108 42 43
3 108 44 119
3 119 45 117
3 120 46 47
3 109 48 120
3 47 49 121
3 110 50 51
3 110 52 122
3 51 53 124
3 53 125 124
3 53 126 55
3 55 56 54
3 56 44 54
3 56 58 59
3 59 60 57
3 60 61 57
3 59 62 32
3 60 30 128
3 62 58 39
3 39 23 116
3 62 31 32
3 23 22 113
3 61 45 119
3 119 44 57
3 128 64 63
3 64 66 63
3 64 30 29
3 29 67 65
3 67 68 65
3 67 16 15
3 15 18 35
3 68 69 70
3 70 66 65
3 35 34 129
3 70 25 24
3 24 71 66
3 71 115 118
3 118 117 45
3 71 63 66
3 118 27 72
3 72 42 117
3 72 73 74
3 74 75 42
3 75 76 52
3 75 124 125
3 125 43 42
3 76 121 123
3 123 122 52
3 74 73 48
3 123 49 77
3 77 50 122
3 77 78 79
3 79 80 50
3 80 51 50
3 79 81 82
3 80 127 126
3 127 55 126
3 82 41 40
3 127 39 58
3 81 83 41
3 83 84 36
3 36 13 21
3 83 114 41
3 81 79 78
3 84 130 85
3 85 37 36
3 130 86 87
3 85 38 37
3 86 88 89
3 87 90 38
3 89 91 33
3 90 17 19
3 19 111 38
3 91 88 92
3 92 69 129
3 91 34 33
3 88 93 28
3 92 25 69
3 46 120 94
3 93 26 28
3 93 86 46
3 120 48 73
3 94 27 26
3 130 47 46
3 130 49 47
3 54 44 43
3 13 12 20
3 112 14 111
3 10 11 14
3 18 104 102
3 116 113 100
3 12 11 4
0 0 0 255 250 250 250 255 0 0 0 255 255 255 255 255 0 0
