ply
format ascii 1.0
comment File exported by Rhinoceros Version 7.0
element vertex 24
property float x
property float y
property float z
property float nx
property float ny
property float nz
property uchar red
property uchar green
property uchar blue
element face 12
property list uchar uint vertex_indices
element material 1
property uchar ambient_red
property uchar ambient_green
property uchar ambient_blue
property uchar ambient_alpha
property uchar diffuse_red
property uchar diffuse_green
property uchar diffuse_blue
property uchar diffuse_alpha
property uchar emissive_red
property uchar emissive_green
property uchar emissive_blue
property uchar emissive_alpha
property uchar specular_red
property uchar specular_green
property uchar specular_blue
property uchar specular_alpha
property double shine
property double transparency
end_header
0.5 0.494226485490799 -0.5 -0.5 0.8660254 0 250 250 250
0.5 0.494226485490799 1.5 -0.5 0.8660254 0 250 250 250
0.0856475532054901 0.254999995231628 -0.5 -0.5 0.8660254 0 250 250 250
0.0856475532054901 0.254999995231628 1.5 -0.5 0.8660254 0 250 250 250
0.0856475532054901 0.254999995231628 -0.5 -0.5 -0.8660254 0 250 250 250
0.0856475532054901 0.254999995231628 1.5 -0.5 -0.8660254 0 250 250 250
0.5 0.0157735031098127 -0.5 -0.5 -0.8660254 0 250 250 250
0.5 0.0157735031098127 1.5 -0.5 -0.8660254 0 250 250 250
0.5 0.0157735031098127 -0.5 0.5 -0.8660254 0 250 250 250
0.5 0.0157735031098127 1.5 0.5 -0.8660254 0 250 250 250
0.914352476596832 0.254999995231628 -0.5 0.5 -0.8660254 0 250 250 250
0.914352476596832 0.254999995231628 1.5 0.5 -0.8660254 0 250 250 250
0.914352476596832 0.254999995231628 -0.5 0.5 0.8660254 0 250 250 250
0.914352476596832 0.254999995231628 1.5 0.5 0.8660254 0 250 250 250
0.5 0.494226485490799 -0.5 0.5 0.8660254 0 250 250 250
0.5 0.494226485490799 1.5 0.5 0.8660254 0 250 250 250
0.5 0.494226485490799 -0.5 0 0 -1 250 250 250
0.0856475532054901 0.254999995231628 -0.5 0 0 -1 250 250 250
0.5 0.0157735031098127 -0.5 0 0 -1 250 250 250
0.914352476596832 0.254999995231628 -0.5 0 0 -1 250 250 250
0.5 0.494226485490799 1.5 0 0 1 250 250 250
0.0856475532054901 0.254999995231628 1.5 0 0 1 250 250 250
0.5 0.0157735031098127 1.5 0 0 1 250 250 250
0.914352476596832 0.254999995231628 1.5 0 0 1 250 250 250
3 0 2 3
3 4 6 7
3 8 10 11
3 12 14 15
3 18 16 19
3 16 18 17
3 22 23 20
3 20 21 22
3 0 3 1
3 4 7 5
3 8 11 9
3 12 15 13
0 0 0 255 250 250 250 255 0 0 0 255 255 255 255 255 0 0
