ply
format ascii 1.0
comment File exported by Rhinoceros Version 7.0
element vertex 145
property float x
property float y
property float z
property float nx
property float ny
property float nz
property uchar red
property uchar green
property uchar blue
element face 131
property list uchar uint vertex_indices
element material 1
property uchar ambient_red
property uchar ambient_green
property uchar ambient_blue
property uchar ambient_alpha
property uchar diffuse_red
property uchar diffuse_green
property uchar diffuse_blue
property uchar diffuse_alpha
property uchar emissive_red
property uchar emissive_green
property uchar emissive_blue
property uchar emissive_alpha
property uchar specular_red
property uchar specular_green
property uchar specular_blue
property uchar specular_alpha
property double shine
property double transparency
end_header
0.500000059604645 0.0157735086977482 -0.5 0.5 -0.8660254 0 250 250 250
0.500000059604645 0.0157735086977482 -6.93889390390723E-18 0.5 -0.8660254 0 250 250 250
0.915352463722229 0.255577355623245 -0.5 0.5 -0.8660254 0 250 250 250
0.500000059604645 0.0157735086977482 -0.25 0.5 -0.8660254 0 250 250 250
0.707676231861115 0.135675430297852 -0.5 0.5 -0.8660254 0 250 250 250
0.915352463722229 0.255577355623245 -0.25 0.5 -0.8660254 0 250 250 250
0.915352463722229 0.255577355623245 -5.55111512312578E-17 0.5 -0.8660254 0 250 250 250
0.707676231861115 0.135675430297852 -3.12250225675825E-17 0.5 -0.8660254 0 250 250 250
0.915352463722229 0.255577355623245 -0.5 0.5 0.8660254 0 250 250 250
0.915352463722229 0.255577355623245 0.739940166473389 0.5 0.8660254 0 250 250 250
0.707676231861115 0.375479280948639 0.739940166473389 0.5 0.8660254 -1.387779E-17 250 250 250
0.5 0.495381206274033 -0.5 0.5 0.8660254 0 250 250 250
0.5 0.495381206274033 0.739940166473389 0.5 0.8660254 0 250 250 250
0.915352463722229 0.255577355623245 -5.55111512312578E-17 0.5 0.8660254 0 250 250 250
0.915352463722229 0.255577355623245 -0.25 0.5 0.8660254 0 250 250 250
0.5 0.495381206274033 -0.25 0.5 0.8660254 0 250 250 250
0.5 0.495381206274033 0 0.5 0.8660254 0 250 250 250
0.0846475660800934 0.255577355623245 -0.5 0 0 -1 250 250 250
0.915352463722229 0.255577355623245 -0.5 0 0 -1 250 250 250
0.292323797941208 0.135675430297852 -0.5 0 0 -1 250 250 250
0.500000059604645 0.0157735086977482 -0.5 0 0 -1 250 250 250
0.707676231861115 0.135675430297852 -0.5 0 0 -1 250 250 250
0.5 0.495381206274033 -0.5 0 0 -1 250 250 250
0.292323797941208 0.375479280948639 -0.5 0 0 -1 250 250 250
0.5 0.495381206274033 0.739940166473389 0 0 1 250 250 250
0.915352463722229 0.255577355623245 0.739940166473389 0 0 1 250 250 250
0.707676231861115 0.375479280948639 0.739940166473389 0 0 1 250 250 250
0.5 0.255577355623245 0.739940166473389 0 0 1 250 250 250
0.500000059604645 0.0157735086977482 0.739940166473389 0 0 1 250 250 250
0.707676231861115 0.135675430297852 0.739940166473389 0 0 1 250 250 250
0.5 0.0157735031098127 1.5 1 0 0 250 250 250
0.5 0.495381206274033 0.739940166473389 1 -5.551115E-17 0 250 250 250
0.5 0.495381206274033 1.5 1 0 0 250 250 250
0.500000059604645 0.0157735086977482 0.739940166473389 1 0 0 250 250 250
0.5 0.255577355623245 0.739940166473389 1 0 0 250 250 250
0.5 0.495381206274033 1.11997008323669 1 0 0 250 250 250
0.5 0.015773506835103 1.11997008323669 1 0 0 250 250 250
-0.24600000679493 0.064677894115448 0.0500000007450581 -1 0 0 250 250 250
-0.24600000679493 0.064677894115448 1.5 -1 0 0 250 250 250
-0.24600000679493 -0.24600000679493 0.0500000007450581 -1 0 0 250 250 250
-0.24600000679493 -0.24600000679493 1.5 -1 0 0 250 250 250
-0.24600000679493 0.064677894115448 0.774999976158142 -1 0 0 250 250 250
-0.24600000679493 -0.24600000679493 0.774999976158142 -1 0 0 250 250 250
-0.24600000679493 -0.24600000679493 0.0500000007450581 0 -1 0 250 250 250
-0.24600000679493 -0.24600000679493 1.5 0 -1 0 250 250 250
0.486339747905731 -0.24600000679493 0.0500000007450581 0 -1 0 250 250 250
0.486339747905731 -0.24600000679493 1.5 0 -1 0 250 250 250
-0.24600000679493 -0.24600000679493 0.774999976158142 0 -1 0 250 250 250
0.120169870555401 -0.24600000679493 0.0500000007450581 0 -1 0 250 250 250
0.486339747905731 -0.24600000679493 0.774999976158142 0 -1 0 250 250 250
0.120169870555401 -0.24600000679493 1.5 0 -1 0 250 250 250
-0.24600000679493 -0.24600000679493 1.5 0 0 1 250 250 250
0.5 0.495381206274033 1.5 0 0 1 250 250 250
0.127000004053116 0.280029535293579 1.5 0 0 1 250 250 250
-0.24600000679493 0.064677894115448 1.5 0 0 1 250 250 250
0.120169870555401 -0.24600000679493 1.5 0 0 1 250 250 250
0.486339747905731 -0.24600000679493 1.5 0 0 1 250 250 250
0.486339747905731 0.00788675155490637 1.5 0 0 1 250 250 250
0.5 0.0157735031098127 1.5 0 0 1 250 250 250
0.127000004053116 0.124690599739552 1.5 0 0 1 250 250 250
0.313499987125397 0.124690599739552 1.5 0 0 1 250 250 250
0.127000004053116 -0.0606546998023987 1.5 0 0 1 250 250 250
0.313499987125397 -0.0606546998023987 1.5 0 0 1 250 250 250
0.406749993562698 0.124690599739552 1.5 0 0 1 250 250 250
0.313499987125397 0.0320179499685764 1.5 -1.110223E-16 0 1 250 250 250
0.406749993562698 -0.0606546998023987 1.5 0 0 1 250 250 250
0.406749993562698 0.0320179499685764 1.5 -1.110223E-16 0 1 250 250 250
0.45337501168251 0.0320179499685764 1.5 -1.110223E-16 0 1 250 250 250
0.406749993562698 -0.0143183758482337 1.5 0 0 1 250 250 250
0.45337501168251 -0.0606546998023987 1.5 0 0 1 250 250 250
0.45337501168251 -0.0143183758482337 1.5 0 0 1 250 250 250
0.313499987125397 -0.153327345848083 1.5 1.110223E-16 0 1 250 250 250
0.406749993562698 -0.153327345848083 1.5 1.110223E-16 0 1 250 250 250
0.0846475660800934 0.255577355623245 -0.5 -0.5 -0.8660254 0 250 250 250
0.0846475660800934 0.255577355623245 0.0500000007450581 -0.5 -0.8660254 0 250 250 250
0.500000059604645 0.0157735086977482 -0.5 -0.5 -0.8660254 0 250 250 250
0.500000059604645 0.0157735086977482 0.0500000007450581 -0.5 -0.8660254 0 250 250 250
0.292323797941208 0.135675430297852 -0.5 -0.5 -0.8660254 0 250 250 250
0.500000059604645 0.0157735086977482 -0.25 -0.5 -0.8660254 0 250 250 250
0.500000059604645 0.0157735086977482 -6.93889390390723E-18 -0.5 -0.8660254 0 250 250 250
0.0846475660800934 0.255577355623245 -0.224999994039536 -0.5 -0.8660254 0 250 250 250
0.292323797941208 0.135675430297852 0.0500000007450581 -0.5 -0.8660254 0 250 250 250
0.292323797941208 0.135675430297852 -0.224999994039536 -0.5 -0.8660254 0 250 250 250
0.292323797941208 0.135675430297852 -0.0874999985098839 -0.5 -0.8660254 0 250 250 250
0.396161913871765 0.0757244676351547 -0.224999994039536 -0.5 -0.8660254 0 250 250 250
0.396161913871765 0.0757244676351547 -0.0874999985098839 -0.5 -0.8660254 0 250 250 250
0.5 0.495381206274033 -0.5 -0.5 0.8660254 0 250 250 250
0.292323797941208 0.375479280948639 -0.5 -0.5 0.8660254 6.195186E-17 250 250 250
0.0846475660800934 0.255577355623245 -0.5 -0.5 0.8660254 0 250 250 250
0.0846475660800934 0.255577355623245 0.0500000007450581 -0.5 0.8660254 0 250 250 250
0.0846475660800934 0.255577355623245 -0.224999994039536 -0.5 0.8660254 0 250 250 250
0.5 0.495381206274033 0 -0.5 0.8660254 0 250 250 250
0.5 0.495381206274033 -0.25 -0.5 0.8660254 0 250 250 250
0.292323797941208 0.375479280948639 0.025000000372529 -0.5 0.8660254 0 250 250 250
0.5 0.495381206274033 0 -0.5 0.8660254 0 250 250 250
0.5 0.495381206274033 1.5 -0.5 0.8660254 0 250 250 250
-0.24600000679493 0.064677894115448 1.5 -0.5 0.8660254 0 250 250 250
0.292323797941208 0.375479280948639 0.025000000372529 -0.5 0.8660254 0 250 250 250
0.0846475660800934 0.255577355623245 0.0500000007450581 -0.5 0.8660254 0 250 250 250
-0.24600000679493 0.064677894115448 0.0500000007450581 -0.5 0.8660254 0 250 250 250
-0.24600000679493 0.064677894115448 0.774999976158142 -0.5 0.8660254 0 250 250 250
0.127000004053116 0.280029535293579 1.5 -0.5 0.8660254 0 250 250 250
0.5 0.495381206274033 0.739940166473389 -0.5 0.8660254 0 250 250 250
0.5 0.495381206274033 1.11997008323669 -0.5 0.8660254 0 250 250 250
-0.24600000679493 -0.24600000679493 0.0500000007450581 0 0 -1 250 250 250
-0.24600000679493 0.064677894115448 0.0500000007450581 0 0 -1 250 250 250
0.120169870555401 -0.24600000679493 0.0500000007450581 0 0 -1 250 250 250
0.486339747905731 -0.24600000679493 0.0500000007450581 0 0 -1 250 250 250
0.500000059604645 0.0157735086977482 0.0500000007450581 0 0 -1 250 250 250
0.292323797941208 0.135675430297852 0.0500000007450581 0 0 -1 250 250 250
0.0846475660800934 0.255577355623245 0.0500000007450581 0 0 -1 250 250 250
0.486339747905731 0.00788675155490637 0.0500000007450581 0 0 -1 250 250 250
0.127000004053116 0.00729656545445323 0.0500000007450581 0 0 -1 250 250 250
0.313499987125397 0.00729656545445323 0.0500000007450581 0 0 -1 250 250 250
0.406749993562698 0.00729656545445323 0.0500000007450581 0 0 -1 250 250 250
0.127000004053116 -0.119351714849472 0.0500000007450581 3.469447E-18 0 -1 250 250 250
0.313499987125397 -0.119351714849472 0.0500000007450581 3.469447E-18 0 -1 250 250 250
0.313499987125397 -0.0560275763273239 0.0500000007450581 0 0 -1 250 250 250
0.406749993562698 -0.119351714849472 0.0500000007450581 3.469447E-18 0 -1 250 250 250
0.406749993562698 -0.0560275763273239 0.0500000007450581 0 0 -1 250 250 250
0.486339747905731 0.00788675155490637 1.5 1 0 0 250 250 250
0.486339747905731 -0.24600000679493 0.0500000007450581 1 -8.821272E-17 0 250 250 250
0.486339747905731 -0.24600000679493 1.5 1 0 0 250 250 250
0.486339747905731 -0.24600000679493 0.774999976158142 1 -9.409357E-17 0 250 250 250
0.486339747905731 0.00788675155490637 0.774999976158142 1 -9.409357E-17 0 250 250 250
0.486339747905731 0.00788675155490637 0.0500000007450581 1 -5.880849E-17 0 250 250 250
0.915352463722229 0.255577355623245 -5.55111512312578E-17 0.5 -0.8660254 0 250 250 250
0.486339747905731 0.00788675155490637 1.5 0.5 -0.8660254 0 250 250 250
0.500000059604645 0.0157735086977482 0.739940166473389 0.5 -0.8660254 0 250 250 250
0.707676231861115 0.135675430297852 0.739940166473389 0.5 -0.8660254 0 250 250 250
0.915352463722229 0.255577355623245 0.739940166473389 0.5 -0.8660254 0 250 250 250
0.5 0.0157735031098127 1.5 0.5 -0.8660254 0 250 250 250
0.5 0.015773506835103 1.11997008323669 0.5 -0.8660254 0 250 250 250
0.500000059604645 0.0157735086977482 0.0500000007450581 0.5 -0.8660254 0 250 250 250
0.486339747905731 0.00788675155490637 0.0500000007450581 0.5 -0.8660254 0 250 250 250
0.593592941761017 0.0698094069957733 0.375 0.5 -0.8660254 0 250 250 250
0.539966344833374 0.0388480760157108 0.375 0.5 -0.8660254 0 250 250 250
0.593592941761017 0.0698094069957733 0.1875 0.5 -0.8660254 0 250 250 250
0.539966344833374 0.0388480760157108 0.1875 0.5 -0.8660254 0 250 250 250
0.51315301656723 0.0233674142509699 0.1875 0.5 -0.8660254 0 250 250 250
0.539966344833374 0.0388480760157108 0.09375 0.5 -0.8660254 0 250 250 250
0.51315301656723 0.0233674142509699 0.09375 0.5 -0.8660254 0 250 250 250
0.500000059604645 0.0157735086977482 -6.93889390390723E-18 0.5 -0.8660254 0 250 250 250
0.707676231861115 0.135675430297852 -3.12250225675825E-17 0.5 -0.8660254 0 250 250 250
0.486339747905731 0.00788675155490637 0.774999976158142 0.5 -0.8660254 0 250 250 250
3 3 0 4
3 3 7 1
3 7 3 4
3 4 5 7
3 5 6 7
3 2 5 4
3 10 14 8
3 10 9 13
3 13 14 10
3 10 11 15
3 12 10 16
3 15 16 10
3 8 11 10
3 23 19 17
3 21 19 23
3 23 22 21
3 21 22 18
3 20 19 21
3 26 27 28
3 26 24 27
3 25 26 29
3 28 29 26
3 34 36 33
4 30 36 35 32
3 35 34 31
3 34 35 36
4 41 37 39 42
4 38 41 42 40
3 47 43 48
3 47 50 44
3 50 47 48
3 48 49 50
3 49 46 50
3 45 49 48
4 63 60 64 66
3 68 66 64
3 62 65 68
3 64 62 68
4 67 66 68 70
4 70 68 65 69
3 64 60 59
3 61 62 64
3 59 61 64
4 65 62 71 72
3 61 51 55
3 71 62 61
3 55 71 61
3 71 56 72
3 56 71 55
3 54 51 61
3 53 54 59
3 59 54 61
3 53 59 60
3 52 53 60
3 69 65 72
3 70 69 57
3 56 57 69
3 67 70 57
3 69 72 56
3 67 63 66
3 63 58 52
3 67 58 63
3 67 57 58
3 60 63 52
4 85 83 82 84
4 73 77 82 80
3 81 74 83
3 74 80 83
3 82 83 80
3 82 77 84
3 78 84 75
3 85 84 78
4 76 81 83 85
3 85 79 76
3 79 85 78
3 75 84 77
3 92 86 87
3 92 93 91
3 93 92 87
4 93 87 88 90
3 90 89 93
3 102 94 97
3 102 101 103
3 103 101 95
3 97 98 102
3 100 98 99
3 96 101 100
3 98 100 101
3 102 98 101
4 114 119 117 113
4 119 118 116 117
3 117 112 113
3 115 117 116
3 112 117 115
3 115 106 104
4 105 112 115 104
3 112 105 110
3 110 109 112
3 112 109 113
3 116 106 115
3 107 116 118
3 119 111 118
3 107 106 116
3 109 108 114
3 114 108 111
3 107 118 111
3 111 119 114
3 113 109 114
4 124 123 121 125
4 120 122 123 124
4 136 138 137 135
4 139 141 140 138
4 126 130 129 143
3 138 140 137
3 143 137 140
3 140 142 143
3 137 143 135
3 135 143 129
3 139 138 136
3 128 135 129
3 136 135 128
3 134 141 139
3 141 134 133
3 141 133 142
3 142 140 141
3 144 134 139
3 144 128 132
3 131 127 132
3 144 132 127
3 144 139 128
3 128 139 136
0 0 0 255 250 250 250 255 0 0 0 255 255 255 255 255 0 0
