ply
format ascii 1.0
comment File exported by Rhinoceros Version 7.0
element vertex 33
property float x
property float y
property float z
property float nx
property float ny
property float nz
property uchar red
property uchar green
property uchar blue
element face 56
property list uchar uint vertex_indices
element material 1
property uchar ambient_red
property uchar ambient_green
property uchar ambient_blue
property uchar ambient_alpha
property uchar diffuse_red
property uchar diffuse_green
property uchar diffuse_blue
property uchar diffuse_alpha
property uchar emissive_red
property uchar emissive_green
property uchar emissive_blue
property uchar emissive_alpha
property uchar specular_red
property uchar specular_green
property uchar specular_blue
property uchar specular_alpha
property double shine
property double transparency
end_header
0.0806475728750229 0.74211323261261 -0.5 -0.8226644 0.3721885 -0.4297662 250 250 250
0.288323789834976 0.382407486438751 -0.5 0.3535534 -0.6123725 -0.7071068 250 250 250
0.496000021696091 0.502309381961823 -0.5 0.8226644 -0.3721885 -0.4297662 250 250 250
-0.24600000679493 1.24600005149841 0.754999995231628 -0.7071068 0.7071068 0 250 250 250
-0.24600000679493 0.0739155039191246 1.5 -0.5685273 -0.5385603 0.6218758 250 250 250
-0.24600000679493 0.0739155039191246 0.754999995231628 -0.5 -0.8660254 0 250 250 250
0.496000021696091 0.502309381961823 0.739940166473389 0.8660254 -0.5 0 250 250 250
0.495999991893768 1.24600005149841 1.5 0.7071068 0.5 0.5 250 250 250
0.496000021696091 0.981917083263397 0.00999999977648258 0.4086128 0.8348341 -0.3689005 250 250 250
0.495999991893768 1.24600005149841 0.754999995231628 0.7071068 0.7071068 0 250 250 250
0.495999991893768 1.24600005149841 0.00999999977648258 0.3826834 0.6532815 -0.6532815 250 250 250
-0.24600000679493 1.24600005149841 1.5 -0.7071068 0.5 0.5 250 250 250
-0.24600000679493 0.659957766532898 1.5 -0.7071068 0 0.7071068 250 250 250
0.495999991893768 0.502309381961823 1.5 0.8226644 -0.3721885 0.4297662 250 250 250
0.496000021696091 0.981917083263397 -0.5 0.3535534 0.6123725 -0.7071068 250 250 250
0.288323789834976 0.862015187740326 -0.5 -0.3535534 0.6123724 -0.7071068 250 250 250
0.0806475728750229 0.74211323261261 -0.245000004768372 -0.8660254 0.5 0 250 250 250
0.496000021696091 0.981917083263397 -0.245000004768372 0.5 0.8660254 0 250 250 250
0.0806475728750229 0.262505561113358 -0.5 -0.1821432 -0.7616392 -0.6218758 250 250 250
0.0806475728750229 0.502309381961823 -0.5 -0.7071068 0 -0.7071068 250 250 250
0.0806475728750229 0.262505561113358 -0.245000004768372 -0.5 -0.8660254 0 250 250 250
0.496000021696091 0.502309381961823 0.00999999977648258 0.7933533 -0.6087614 0 250 250 250
0.496000021696091 0.502309381961823 -0.245000004768372 0.8660254 -0.5 0 250 250 250
0.288323789834976 0.382407486438751 0.00999999977648258 0.5 -0.8660254 0 250 250 250
0.496000021696091 0.74211323261261 -0.5 0.7071068 0 -0.7071068 250 250 250
0.496000021696091 0.74211323261261 0.00999999977648258 1 -2.768875E-17 0 250 250 250
-0.24600000679493 1.24600005149841 0.00999999977648258 -0.5 0.7071068 -0.5 250 250 250
-0.24600000679493 0.0739155039191246 0.00999999977648258 -0.5685273 -0.5385603 -0.6218758 250 250 250
-0.24600000679493 0.659957766532898 0.00999999977648258 -0.7071068 0 -0.7071068 250 250 250
0.0806475728750229 0.262505561113358 0.00999999977648258 0.1615268 -0.797659 -0.5810758 250 250 250
0.0806475728750229 0.74211323261261 0.00999999977648258 -0.8226644 0.3721885 -0.4297662 250 250 250
0.288323789834976 0.862015187740326 0.00999999977648258 -0.3535534 0.6123724 -0.7071068 250 250 250
0.0806475728750229 0.502309381961823 0.00999999977648258 -0.7071068 -9.789452E-18 -0.7071068 250 250 250
3 19 1 18
3 1 19 0
3 0 15 1
4 2 1 15 24
3 24 15 14
3 3 26 28
3 3 12 11
3 5 3 28
3 3 5 12
3 5 4 12
3 27 5 28
3 5 27 29
4 4 5 6 13
3 6 5 29
3 6 23 21
3 23 6 29
3 6 21 25
4 13 6 9 7
3 8 6 25
3 9 8 10
3 8 9 6
4 9 10 26 3
4 7 9 3 11
4 13 7 11 12
3 13 12 4
3 17 14 15
3 17 31 8
3 16 17 15
3 17 16 31
3 16 30 31
3 0 16 15
3 19 32 16
3 16 32 30
3 19 16 0
3 20 19 18
3 20 29 32
3 19 20 32
3 20 18 1
3 20 23 29
3 23 20 1
3 1 22 23
3 22 21 23
3 2 22 1
3 22 2 24
3 22 25 21
3 17 22 24
3 22 17 25
3 17 8 25
3 14 17 24
3 31 10 8
3 31 30 26
3 26 10 31
3 30 32 28
3 32 29 28
3 27 28 29
3 26 30 28
0 0 0 255 250 250 250 255 0 0 0 255 255 255 255 255 0 0
